<svg xmlns="http://www.w3.org/2000/svg" viewBox="0 0 22.67 30.33"><defs><style>.cls-1{fill:#fff;}</style></defs><g id="Layer_2" data-name="Layer 2"><g id="Layer_1-2" data-name="Layer 1"><polygon points="22.67 0 0 0 0 25.3 14.88 25.3 22.67 14.31 22.67 0"/><path class="cls-1" d="M16.16,11.79a9.39,9.39,0,0,1-.8,4,7.87,7.87,0,0,1-2.09,2.78,8.4,8.4,0,0,1-2.93,1.61A11,11,0,0,1,7,20.71H1V3H6.84a13.57,13.57,0,0,1,3.41.44,8.34,8.34,0,0,1,3,1.46,7.19,7.19,0,0,1,2.11,2.72A9.76,9.76,0,0,1,16.16,11.79Zm-4.1,0a6.26,6.26,0,0,0-.44-2.5,4.09,4.09,0,0,0-1.2-1.57,4.45,4.45,0,0,0-1.7-.84,7.61,7.61,0,0,0-2-.26H4.8V17H6.66a7.59,7.59,0,0,0,2-.26,4.56,4.56,0,0,0,1.73-.87,4.2,4.2,0,0,0,1.2-1.6A6.25,6.25,0,0,0,12.06,11.79Z"/><path class="cls-1" d="M1.19,24V22H2l.16,0,.15,0,.14.08a1.29,1.29,0,0,1,.16.17.85.85,0,0,1,.09.22.86.86,0,0,1,.06.23,1.55,1.55,0,0,1,0,.21,1.34,1.34,0,0,1,0,.2,1.42,1.42,0,0,1,0,.2,1.34,1.34,0,0,1-.07.18.61.61,0,0,1-.12.16.53.53,0,0,1-.14.12l-.17.08-.18,0H1.19Zm.19-.16h.68a.74.74,0,0,0,.22-.08.34.34,0,0,0,.16-.13.81.81,0,0,0,.1-.18,1.6,1.6,0,0,0,0-.21,1.49,1.49,0,0,0,0-.21,1.8,1.8,0,0,0,0-.22.65.65,0,0,0,0-.2.69.69,0,0,0-.1-.19.55.55,0,0,0-.17-.13.65.65,0,0,0-.21-.06l-.24,0H1.38Z"/><path class="cls-1" d="M3.7,24V22H5v.15H3.88v.71h1V23h-1v.77H5V24Z"/><path class="cls-1" d="M7.43,23.7h0L7.87,22h.19L7.54,24h-.2l-.45-1.73h0L6.43,24H6.22L5.72,22H5.9l.42,1.69h0L6.78,22H7Z"/><path class="cls-1" d="M8.86,24V22h1.3v.15H9v.71h1V23H9v.77h1.15V24Z"/><path class="cls-1" d="M11.66,23l.59-.94h.21l-.7,1.1V24h-.19v-.84L10.87,22h.21Z"/><path d="M0,26H.66L.9,27.34,1.24,26H1.9l.35,1.37L2.48,26h.66l-.49,2.45H2l-.4-1.54-.39,1.54H.5Z"/><path d="M3.11,26H5v.53H3.81v.39H4.89v.5H3.81v.48H5v.55H3.11Z"/><path d="M5.13,26h1.3a.67.67,0,0,1,.5.18A.64.64,0,0,1,7,27a.6.6,0,0,1-.24.16.55.55,0,0,1,.35.22.61.61,0,0,1,.12.39.67.67,0,0,1-.09.34.56.56,0,0,1-.22.24.89.89,0,0,1-.26.08l-.31,0H5.13Zm.7,1h.3a.33.33,0,0,0,.23-.06.27.27,0,0,0,0-.34.32.32,0,0,0-.22-.06H5.83Zm0,1h.35a.43.43,0,0,0,.26-.07.25.25,0,0,0,.07-.19.21.21,0,0,0-.07-.17.37.37,0,0,0-.26-.07H5.83Z"/><path d="M8.12,26h1a1,1,0,0,1,.49.1.76.76,0,0,1,.31.25,1,1,0,0,1,.18.4,1.78,1.78,0,0,1,.06.47,2,2,0,0,1-.08.61,1.11,1.11,0,0,1-.23.36.82.82,0,0,1-.31.2,1.7,1.7,0,0,1-.42.06h-1Zm.7.56v1.34H9a.56.56,0,0,0,.3-.06.31.31,0,0,0,.15-.18,1.4,1.4,0,0,0,.05-.42.89.89,0,0,0-.12-.54A.46.46,0,0,0,9,26.53Z"/><path d="M10.3,26h1.86v.53H11v.39h1.08v.5H11v.48h1.2v.55H10.3Z"/><path d="M12.09,26h.73l.5,1.77.5-1.77h.71l-.84,2.45h-.75Z"/><path d="M.39,29H.86L1,29l.09.06a.36.36,0,0,1,.07.1.61.61,0,0,1,0,.15.33.33,0,0,1,0,.15.26.26,0,0,1-.07.1.27.27,0,0,1-.1.06l-.11,0,.35.64H1.06l-.34-.63H.5v.63H.39Zm.11.58H.74l.15,0L1,29.48a.3.3,0,0,0,0-.08s0,0,0-.07,0,0,0-.08a.3.3,0,0,0,0-.08l-.09-.06-.15,0H.5Z"/><path d="M1.89,29h.74v.11H2v.47h.59v.11H2v.52h.65v.11H1.89Z"/><path d="M3.41,30.05a.3.3,0,0,0,.12.13.27.27,0,0,0,.16,0l.1,0a.19.19,0,0,0,.09-.05l.06-.08A.36.36,0,0,0,4,30a.2.2,0,0,0,0-.11.18.18,0,0,0-.07-.08l-.1-.05-.11,0-.12,0-.1-.07a.3.3,0,0,1-.07-.11.34.34,0,0,1,0-.15.41.41,0,0,1,0-.16A.44.44,0,0,1,3.45,29,.33.33,0,0,1,3.58,29a.32.32,0,0,1,.14,0,.58.58,0,0,1,.19,0,.43.43,0,0,1,.14.13L4,29.19a.31.31,0,0,0-.1-.1.32.32,0,0,0-.14,0h-.1a.19.19,0,0,0-.09.05l-.06.08a.31.31,0,0,0,0,.11.24.24,0,0,0,0,.15.5.5,0,0,0,.12.08l.15.06a.47.47,0,0,1,.15.06.32.32,0,0,1,.12.11.34.34,0,0,1,0,.19.41.41,0,0,1,0,.16.5.5,0,0,1-.08.12l-.12.07-.14,0a.51.51,0,0,1-.22,0,.46.46,0,0,1-.18-.16Z"/><path d="M4.73,29.64a.66.66,0,0,1,0-.28.78.78,0,0,1,.12-.22A.56.56,0,0,1,5.1,29,.55.55,0,0,1,5.36,29a.53.53,0,0,1,.25.05.56.56,0,0,1,.2.14,1.16,1.16,0,0,1,.13.22,1,1,0,0,1,0,.56,1.16,1.16,0,0,1-.13.22.56.56,0,0,1-.2.14.53.53,0,0,1-.25,0,.55.55,0,0,1-.26,0,.56.56,0,0,1-.2-.14.78.78,0,0,1-.12-.22A.66.66,0,0,1,4.73,29.64Zm.11,0a.59.59,0,0,0,0,.23.52.52,0,0,0,.1.18.65.65,0,0,0,.16.13.54.54,0,0,0,.22,0,.49.49,0,0,0,.21,0,.51.51,0,0,0,.16-.13.52.52,0,0,0,.1-.18.68.68,0,0,0,0-.46.69.69,0,0,0-.1-.19.48.48,0,0,0-.16-.12.49.49,0,0,0-.21,0,.54.54,0,0,0-.22,0,.61.61,0,0,0-.16.12.69.69,0,0,0-.1.19A.59.59,0,0,0,4.84,29.64Z"/><path d="M7.57,29.79a.75.75,0,0,1,0,.21.51.51,0,0,1-.07.17.41.41,0,0,1-.14.12.46.46,0,0,1-.21,0,.4.4,0,0,1-.2,0,.33.33,0,0,1-.14-.12A.53.53,0,0,1,6.71,30a1.49,1.49,0,0,1,0-.21V29H6.8v.78a.77.77,0,0,0,0,.15.33.33,0,0,0,0,.15.4.4,0,0,0,.1.12.31.31,0,0,0,.17,0,.29.29,0,0,0,.17,0,.23.23,0,0,0,.1-.12.33.33,0,0,0,0-.15.76.76,0,0,0,0-.15V29h.11Z"/><path d="M8.36,29h.47l.1,0,.09.06a.36.36,0,0,1,.07.1.61.61,0,0,1,0,.15.33.33,0,0,1,0,.15.26.26,0,0,1-.07.1.27.27,0,0,1-.1.06l-.11,0,.35.64H9l-.34-.63H8.48v.63H8.36Zm.12.58h.23l.15,0L9,29.48a.3.3,0,0,0,0-.08s0,0,0-.07,0,0,0-.08a.3.3,0,0,0,0-.08l-.09-.06-.15,0H8.48Z"/><path d="M10.85,30.09a.52.52,0,0,1-.2.19.7.7,0,0,1-.25,0,.53.53,0,0,1-.25,0,.56.56,0,0,1-.2-.14.8.8,0,0,1-.13-.22,1,1,0,0,1,0-.56.8.8,0,0,1,.13-.22.56.56,0,0,1,.2-.14A.53.53,0,0,1,10.4,29a.56.56,0,0,1,.23,0,.48.48,0,0,1,.19.16l-.09.09a.33.33,0,0,0-.15-.14.39.39,0,0,0-.18,0,.46.46,0,0,0-.21,0,.48.48,0,0,0-.16.12.5.5,0,0,0-.1.19.68.68,0,0,0,0,.46.4.4,0,0,0,.1.18.51.51,0,0,0,.16.13.46.46,0,0,0,.21,0h.1l.1,0,.08-.06.08-.09Z"/><path d="M11.54,29h.74v.11h-.63v.47h.59v.11h-.59v.52h.66v.11h-.77Z"/><path d="M13.06,30.05a.3.3,0,0,0,.12.13.29.29,0,0,0,.16,0l.11,0,.08-.05a.16.16,0,0,0,.06-.08.2.2,0,0,0,0-.11.36.36,0,0,0,0-.11.27.27,0,0,0-.07-.08l-.1-.05-.12,0-.11,0-.1-.07a.21.21,0,0,1-.07-.11.33.33,0,0,1,0-.15.41.41,0,0,1,0-.16.31.31,0,0,1,.09-.11.24.24,0,0,1,.12-.07.39.39,0,0,1,.15,0,.57.57,0,0,1,.18,0,.37.37,0,0,1,.15.13l-.1.08a.24.24,0,0,0-.1-.1.29.29,0,0,0-.14,0h-.1l-.09.05-.06.08a.31.31,0,0,0,0,.11.25.25,0,0,0,.05.15l.11.08.15.06a.34.34,0,0,1,.15.06.32.32,0,0,1,.12.11.33.33,0,0,1,.05.19.41.41,0,0,1,0,.16.54.54,0,0,1-.09.12.35.35,0,0,1-.12.07l-.14,0a.54.54,0,0,1-.22,0,.37.37,0,0,1-.17-.16Z"/></g></g></svg>