<svg xmlns="http://www.w3.org/2000/svg" viewBox="0 0 61.35 18.4"><defs><style>.cls-1{fill:#5dfdcb;}</style></defs><g id="Layer_2" data-name="Layer 2"><g id="Layer_1-2" data-name="Layer 1"><path class="cls-1" d="M0,0H2.78l1,5.79L5.25,0H8L9.49,5.78l1-5.78h2.77L11.17,10.33H8.3L6.64,3.83,5,10.33H2.11Z"/><path class="cls-1" d="M13.15,0H21V2.21H16.09V3.85h4.56V6H16.09V8h5.06v2.34h-8Z"/><path class="cls-1" d="M21.67,0h5.48a2.85,2.85,0,0,1,2.11.74A2.48,2.48,0,0,1,30,2.57a2.42,2.42,0,0,1-.52,1.57,2.29,2.29,0,0,1-1,.7,2.53,2.53,0,0,1,1.5.92,2.67,2.67,0,0,1,.48,1.63,3,3,0,0,1-.34,1.45,2.55,2.55,0,0,1-.94,1,2.74,2.74,0,0,1-1.11.34,10.46,10.46,0,0,1-1.31.14H21.67Zm2.95,4.05H25.9a1.37,1.37,0,0,0,1-.25,1,1,0,0,0,.27-.75.91.91,0,0,0-.27-.7,1.34,1.34,0,0,0-.93-.26h-1.3Zm0,4.06h1.5a1.54,1.54,0,0,0,1.07-.29A1.05,1.05,0,0,0,27.5,7a1,1,0,0,0-.31-.73A1.61,1.61,0,0,0,26.11,6H24.62Z"/><path class="cls-1" d="M34.3,0h4.35a4.89,4.89,0,0,1,2.08.38A3.39,3.39,0,0,1,42,1.47a4.58,4.58,0,0,1,.75,1.66,8.12,8.12,0,0,1,.23,2,7.55,7.55,0,0,1-.34,2.57,4.25,4.25,0,0,1-1,1.53,3,3,0,0,1-1.32.82,6.22,6.22,0,0,1-1.75.28H34.3Zm2.93,2.34V8H38a2.73,2.73,0,0,0,1.3-.23A1.44,1.44,0,0,0,39.86,7a5.19,5.19,0,0,0,.22-1.79A3.7,3.7,0,0,0,39.59,3,2,2,0,0,0,38,2.34Z"/><path class="cls-1" d="M43.5,0h7.85V2.21H46.43V3.85H51V6H46.43V8h5.06v2.34h-8Z"/><path class="cls-1" d="M51.08,0h3.06l2.13,7.44L58.38,0h3L57.83,10.33H54.66Z"/><path class="cls-1" d="M1.66,12.69H3.27a2.84,2.84,0,0,1,.38.05,2.41,2.41,0,0,1,.41.13,1,1,0,0,1,.38.25,1.27,1.27,0,0,1,.27.42,1.55,1.55,0,0,1,.11.61,1.41,1.41,0,0,1-.13.66,1.35,1.35,0,0,1-.31.42,1.22,1.22,0,0,1-.43.24,1.89,1.89,0,0,1-.44.11L5,18.26H4.46L3,15.61H2.13v2.65H1.66Zm.47,2.45h1a1.49,1.49,0,0,0,.61-.1,1,1,0,0,0,.37-.25.89.89,0,0,0,.18-.33,1.2,1.2,0,0,0,0-.31,1.33,1.33,0,0,0,0-.32.93.93,0,0,0-.18-.32,1,1,0,0,0-.37-.25,1.49,1.49,0,0,0-.61-.1h-1Z"/><path class="cls-1" d="M8,12.69h3.13v.47H8.44v2h2.48v.47H8.44v2.18h2.77v.47H8Z"/><path class="cls-1" d="M14.41,17.23a1.24,1.24,0,0,0,.48.53,1.41,1.41,0,0,0,.69.17,1.32,1.32,0,0,0,.44-.08,1.25,1.25,0,0,0,.37-.22,1,1,0,0,0,.24-.34,1.13,1.13,0,0,0,.09-.45.91.91,0,0,0-.11-.49,1,1,0,0,0-.3-.31,2.06,2.06,0,0,0-.42-.21l-.48-.17-.49-.19a1.57,1.57,0,0,1-.42-.29,1.19,1.19,0,0,1-.3-.45,1.63,1.63,0,0,1-.11-.66,1.56,1.56,0,0,1,.13-.66,1.44,1.44,0,0,1,.36-.48,1.8,1.8,0,0,1,.53-.29,2.06,2.06,0,0,1,.62-.1,1.81,1.81,0,0,1,.77.17,1.42,1.42,0,0,1,.62.53l-.41.33a1.29,1.29,0,0,0-.42-.42,1.18,1.18,0,0,0-.58-.13,1.61,1.61,0,0,0-.44.06,1,1,0,0,0-.36.2.9.9,0,0,0-.25.33,1.12,1.12,0,0,0,.1,1.1,1.39,1.39,0,0,0,.49.36,6.48,6.48,0,0,0,.63.23,2.77,2.77,0,0,1,.64.26A1.43,1.43,0,0,1,17,16a1.49,1.49,0,0,1,.19.82,1.53,1.53,0,0,1-.13.66,1.5,1.5,0,0,1-.35.5,1.63,1.63,0,0,1-.51.3,1.72,1.72,0,0,1-.6.1,2.18,2.18,0,0,1-.93-.19,1.8,1.8,0,0,1-.73-.65Z"/><path class="cls-1" d="M20,15.47a3.42,3.42,0,0,1,.2-1.17,2.84,2.84,0,0,1,.54-.93,2.46,2.46,0,0,1,.84-.61,2.71,2.71,0,0,1,2.14,0,2.42,2.42,0,0,1,.83.61,2.7,2.7,0,0,1,.55.93,3.73,3.73,0,0,1,0,2.35,2.7,2.7,0,0,1-.55.93,2.42,2.42,0,0,1-.83.61,2.83,2.83,0,0,1-2.14,0,2.46,2.46,0,0,1-.84-.61,2.84,2.84,0,0,1-.54-.93A3.44,3.44,0,0,1,20,15.47Zm.48,0a3,3,0,0,0,.15,1,2.29,2.29,0,0,0,.44.78,2,2,0,0,0,.68.52,2.23,2.23,0,0,0,1.8,0,2.16,2.16,0,0,0,.68-.52,2.27,2.27,0,0,0,.43-.78,3,3,0,0,0,.15-1,3.08,3.08,0,0,0-.15-1,2.47,2.47,0,0,0-.43-.78,2,2,0,0,0-.68-.51,2.23,2.23,0,0,0-1.8,0,1.82,1.82,0,0,0-.68.51,2.5,2.5,0,0,0-.44.78A3.08,3.08,0,0,0,20.45,15.47Z"/><path class="cls-1" d="M32,16.13a3.36,3.36,0,0,1-.1.85,1.92,1.92,0,0,1-.31.73,1.56,1.56,0,0,1-.58.5,1.82,1.82,0,0,1-.88.19,1.78,1.78,0,0,1-.87-.19,1.49,1.49,0,0,1-.58-.5,2.11,2.11,0,0,1-.32-.73,3.89,3.89,0,0,1-.09-.85V12.69h.48V16a3.66,3.66,0,0,0,.05.64,1.86,1.86,0,0,0,.2.63,1.26,1.26,0,0,0,.41.48,1.46,1.46,0,0,0,1.44,0,1.38,1.38,0,0,0,.42-.48,1.86,1.86,0,0,0,.2-.63,5,5,0,0,0,.05-.64v-3.3H32Z"/><path class="cls-1" d="M35.32,12.69h1.61a2.84,2.84,0,0,1,.38.05,2.41,2.41,0,0,1,.41.13,1,1,0,0,1,.38.25,1.27,1.27,0,0,1,.27.42,1.55,1.55,0,0,1,.11.61,1.41,1.41,0,0,1-.13.66,1.35,1.35,0,0,1-.31.42,1.22,1.22,0,0,1-.43.24,1.89,1.89,0,0,1-.44.11l1.49,2.68h-.54l-1.44-2.65h-.89v2.65h-.47Zm.47,2.45h1a1.49,1.49,0,0,0,.61-.1,1,1,0,0,0,.37-.25.89.89,0,0,0,.18-.33,1.2,1.2,0,0,0,0-.31,1.33,1.33,0,0,0,0-.32.93.93,0,0,0-.18-.32,1,1,0,0,0-.37-.25,1.49,1.49,0,0,0-.61-.1h-1Z"/><path class="cls-1" d="M45.83,17.39a2.23,2.23,0,0,1-.85.78,2.45,2.45,0,0,1-1,.23,2.69,2.69,0,0,1-1.07-.21,2.52,2.52,0,0,1-.83-.61,2.86,2.86,0,0,1-.55-.93,3.73,3.73,0,0,1,0-2.35,2.86,2.86,0,0,1,.55-.93,2.52,2.52,0,0,1,.83-.61,2.69,2.69,0,0,1,1.07-.22,2.49,2.49,0,0,1,1,.2,2,2,0,0,1,.79.68l-.39.35a1.51,1.51,0,0,0-.61-.57,1.77,1.77,0,0,0-.77-.18,2,2,0,0,0-.9.19,2,2,0,0,0-.68.51,2.47,2.47,0,0,0-.43.78,3.08,3.08,0,0,0-.15,1,3,3,0,0,0,.15,1,2.27,2.27,0,0,0,.43.78,2.16,2.16,0,0,0,.68.52,2,2,0,0,0,.9.19,2,2,0,0,0,.41-.05,2.31,2.31,0,0,0,.41-.16,1.84,1.84,0,0,0,.37-.27,1.24,1.24,0,0,0,.32-.39Z"/><path class="cls-1" d="M48.73,12.69h3.13v.47H49.21v2h2.48v.47H49.21v2.18H52v.47H48.73Z"/><path class="cls-1" d="M55.17,17.23a1.33,1.33,0,0,0,.49.53,1.4,1.4,0,0,0,.68.17,1.33,1.33,0,0,0,.45-.08,1.25,1.25,0,0,0,.37-.22,1,1,0,0,0,.24-.34,1.13,1.13,0,0,0,.09-.45,1,1,0,0,0-.11-.49,1,1,0,0,0-.3-.31,2.74,2.74,0,0,0-.42-.21l-.49-.17-.48-.19a1.57,1.57,0,0,1-.42-.29,1.19,1.19,0,0,1-.3-.45,1.63,1.63,0,0,1-.11-.66,1.56,1.56,0,0,1,.13-.66,1.44,1.44,0,0,1,.36-.48,1.88,1.88,0,0,1,.52-.29,2.17,2.17,0,0,1,.62-.1,1.85,1.85,0,0,1,.78.17,1.42,1.42,0,0,1,.62.53l-.41.33a1.23,1.23,0,0,0-.43-.42,1.14,1.14,0,0,0-.57-.13,1.61,1.61,0,0,0-.44.06,1,1,0,0,0-.36.2.9.9,0,0,0-.25.33,1.12,1.12,0,0,0,.1,1.1,1.44,1.44,0,0,0,.48.36c.2.08.41.16.64.23a2.77,2.77,0,0,1,.64.26,1.4,1.4,0,0,1,.48.46,1.48,1.48,0,0,1,.2.82,1.69,1.69,0,0,1-.13.66,1.66,1.66,0,0,1-.35.5,1.63,1.63,0,0,1-.51.3,1.72,1.72,0,0,1-.6.1,2.18,2.18,0,0,1-.93-.19,1.74,1.74,0,0,1-.73-.65Z"/></g></g></svg>