<svg xmlns="http://www.w3.org/2000/svg" xmlns:xlink="http://www.w3.org/1999/xlink" viewBox="0 0 145.75 154.77"><defs><style>.cls-1{fill:url(#linear-gradient);}.cls-2{fill:#c7a0f6;}.cls-3{fill:url(#linear-gradient-2);}.cls-4{fill:#fde1a7;}.cls-5{fill:#ff57bc;}.cls-6{fill:#ff9bbb;}.cls-7{fill:#1aa9e8;}.cls-8{fill:#05c5da;}.cls-9{fill:#0090b2;}.cls-10{fill:url(#linear-gradient-3);}.cls-11{opacity:0.3;isolation:isolate;fill:url(#linear-gradient-4);}.cls-12{fill:url(#linear-gradient-5);}.cls-13{fill:url(#linear-gradient-6);}.cls-14{fill:url(#linear-gradient-7);}.cls-15{fill:url(#linear-gradient-8);}.cls-16{fill:url(#linear-gradient-9);}.cls-17{fill:url(#linear-gradient-10);}.cls-18{fill:url(#linear-gradient-11);}.cls-19{fill:url(#linear-gradient-12);}.cls-20{fill:url(#linear-gradient-13);}.cls-21{fill:url(#linear-gradient-14);}.cls-22{fill:url(#linear-gradient-15);}.cls-23{fill:url(#linear-gradient-16);}.cls-24{fill:url(#linear-gradient-17);}.cls-25{fill:url(#linear-gradient-18);}.cls-26{fill:url(#linear-gradient-19);}.cls-27{fill:#9180e6;}.cls-28{fill:url(#linear-gradient-20);}.cls-29{fill:url(#linear-gradient-21);}.cls-30{fill:url(#linear-gradient-22);}.cls-31{fill:url(#linear-gradient-23);}.cls-32{fill:#fbbb6c;}.cls-33{fill:#5265f9;}.cls-34{fill:#ea4d81;}.cls-35{fill:url(#linear-gradient-24);}.cls-36{fill:url(#linear-gradient-25);}.cls-37{fill:url(#linear-gradient-26);}.cls-38{fill:url(#linear-gradient-27);}.cls-39{fill:#ad7cf7;}.cls-40{fill:url(#linear-gradient-28);}.cls-41{fill:url(#linear-gradient-29);}.cls-42{fill:url(#linear-gradient-30);}.cls-43{fill:url(#linear-gradient-31);}.cls-44{fill:url(#linear-gradient-32);}.cls-45{fill:url(#linear-gradient-33);}.cls-46{fill:url(#linear-gradient-34);}.cls-47{fill:url(#linear-gradient-35);}.cls-48{fill:url(#linear-gradient-36);}.cls-49{fill:url(#linear-gradient-37);}.cls-50{fill:url(#linear-gradient-38);}.cls-51{fill:url(#linear-gradient-39);}.cls-52{fill:url(#linear-gradient-40);}.cls-53{fill:#ffa2ba;}.cls-54{fill:url(#linear-gradient-41);}.cls-55{fill:url(#linear-gradient-42);}.cls-56{fill:#7b7bef;}.cls-57{fill:url(#linear-gradient-43);}.cls-58{fill:url(#linear-gradient-44);}.cls-59{fill:url(#linear-gradient-45);}.cls-60{fill:url(#linear-gradient-46);}.cls-61{fill:url(#linear-gradient-47);}.cls-62{fill:#665edb;}.cls-63{fill:url(#linear-gradient-48);}.cls-64{fill:url(#linear-gradient-49);}.cls-65{fill:url(#linear-gradient-50);}.cls-66{fill:url(#linear-gradient-51);}.cls-67{fill:url(#linear-gradient-52);}.cls-68{fill:#fff;}.cls-69{fill:#212f66;}.cls-70{fill:url(#linear-gradient-53);}.cls-71{fill:url(#linear-gradient-54);}.cls-72{fill:url(#linear-gradient-55);}.cls-73{fill:url(#linear-gradient-56);}.cls-74{fill:url(#linear-gradient-57);}.cls-75{fill:url(#linear-gradient-58);}.cls-76{fill:url(#linear-gradient-59);}.cls-77{fill:url(#linear-gradient-60);}.cls-78{fill:#c66c50;}.cls-79{fill:url(#linear-gradient-61);}.cls-80{fill:url(#linear-gradient-62);}.cls-81{fill:url(#linear-gradient-63);}.cls-82{fill:url(#linear-gradient-64);}.cls-83{fill:url(#linear-gradient-65);}.cls-84{fill:url(#linear-gradient-66);}.cls-85{fill:#6022b6;}.cls-86{fill:url(#linear-gradient-67);}.cls-87{fill:url(#linear-gradient-68);}.cls-88{fill:url(#linear-gradient-69);}.cls-89{fill:url(#linear-gradient-70);}.cls-90{fill:#00e2ec;}.cls-91{fill:url(#linear-gradient-71);}.cls-92{fill:url(#linear-gradient-72);}.cls-93{fill:url(#linear-gradient-73);}.cls-94{fill:url(#linear-gradient-74);}.cls-95{fill:url(#linear-gradient-75);}.cls-96{fill:url(#linear-gradient-76);}.cls-97{fill:url(#linear-gradient-77);}.cls-98{fill:url(#linear-gradient-78);}.cls-99{fill:url(#linear-gradient-79);}.cls-100{fill:url(#linear-gradient-80);}.cls-101{fill:url(#linear-gradient-81);}.cls-102{fill:url(#linear-gradient-82);}.cls-103{fill:url(#linear-gradient-83);}.cls-104{fill:url(#linear-gradient-84);}</style><linearGradient id="linear-gradient" x1="-897.87" y1="400.07" x2="-897.87" y2="400.67" gradientTransform="matrix(218.49, 0, 0, -262.13, 196252.91, 105026.76)" gradientUnits="userSpaceOnUse"><stop offset="0" stop-color="#c7a0f6"/><stop offset="1" stop-color="#8ce6fd"/></linearGradient><linearGradient id="linear-gradient-2" x1="-878.4" y1="394.88" x2="-877.73" y2="394.88" gradientTransform="matrix(27.15, 0, 0, -39.33, 23848.55, 15584.21)" gradientUnits="userSpaceOnUse"><stop offset="0" stop-color="#b0e1ff"/><stop offset="1" stop-color="#fff"/></linearGradient><linearGradient id="linear-gradient-3" x1="-871.04" y1="392.01" x2="-870.37" y2="392.01" gradientTransform="matrix(20.44, 0, 0, -26.96, 17804.01, 10625.75)" gradientUnits="userSpaceOnUse"><stop offset="0" stop-color="#00e2ec"/><stop offset="1" stop-color="#0090b2"/></linearGradient><linearGradient id="linear-gradient-4" x1="-895.13" y1="396.99" x2="-895.13" y2="397.58" gradientTransform="matrix(107.95, 0, 0, -49.87, 96690.88, 19942.28)" gradientUnits="userSpaceOnUse"><stop offset="0" stop-color="#6b49c0"/><stop offset="1" stop-color="#5e7ed9"/></linearGradient><linearGradient id="linear-gradient-5" x1="-648.9" y1="397.08" x2="-648.23" y2="397.08" gradientTransform="matrix(2.28, 0, 0, -65.73, 1557.99, 26120.96)" gradientUnits="userSpaceOnUse"><stop offset="0" stop-color="#fff"/><stop offset="1" stop-color="#b0e1ff"/></linearGradient><linearGradient id="linear-gradient-6" x1="-886.5" y1="276.74" x2="-885.83" y2="276.74" gradientTransform="matrix(39.66, 0, 0, -2.28, 35232.79, 637.21)" xlink:href="#linear-gradient-5"/><linearGradient id="linear-gradient-7" x1="-888.19" y1="281.41" x2="-887.53" y2="281.41" gradientTransform="matrix(44.89, 0, 0, -2.28, 39948.72, 663.19)" xlink:href="#linear-gradient-5"/><linearGradient id="linear-gradient-8" x1="-888.03" y1="286.68" x2="-887.37" y2="286.68" gradientTransform="matrix(44.34, 0, 0, -2.28, 39452.26, 692.5)" xlink:href="#linear-gradient-5"/><linearGradient id="linear-gradient-9" x1="-875.81" y1="393.9" x2="-875.15" y2="393.9" gradientTransform="matrix(24.36, 0, 0, -34.11, 21335.5, 13489.61)" gradientUnits="userSpaceOnUse"><stop offset="0" stop-color="#8c6ae2"/><stop offset="1" stop-color="#5a55f8"/></linearGradient><linearGradient id="linear-gradient-10" x1="-821.57" y1="368.86" x2="-820.9" y2="368.86" gradientTransform="matrix(7.68, 0, 0, -7.68, 6317.41, 2889.54)" gradientUnits="userSpaceOnUse"><stop offset="0" stop-color="#c07eb0"/><stop offset="1" stop-color="#ee5c95"/></linearGradient><linearGradient id="linear-gradient-11" x1="-878.9" y1="394.73" x2="-878.16" y2="394.73" gradientTransform="matrix(27.39, 0, 0, -29.47, 24084.91, 11769.93)" xlink:href="#linear-gradient-10"/><linearGradient id="linear-gradient-12" x1="-876.29" y1="387.14" x2="-875.94" y2="386.5" gradientTransform="matrix(24.75, 0, 0, -13.74, 21704.18, 5444.3)" gradientUnits="userSpaceOnUse"><stop offset="0" stop-color="#8173cc"/><stop offset="1" stop-color="#271068"/></linearGradient><linearGradient id="linear-gradient-13" x1="-818.11" y1="375.47" x2="-817.45" y2="375.47" gradientTransform="matrix(7.31, 0, 0, -8.71, 5997.19, 3363.42)" gradientUnits="userSpaceOnUse"><stop offset="0" stop-color="#fde1a7"/><stop offset="1" stop-color="#f9a144"/></linearGradient><linearGradient id="linear-gradient-14" x1="-885.05" y1="394.21" x2="-884.39" y2="394.21" gradientTransform="matrix(37.82, 0, 0, -28.86, 33496.14, 11498.43)" xlink:href="#linear-gradient-3"/><linearGradient id="linear-gradient-15" x1="-851.07" y1="390.36" x2="-850.41" y2="390.36" gradientTransform="matrix(12.06, 0, 0, -18.45, 10285.99, 7326.16)" xlink:href="#linear-gradient-13"/><linearGradient id="linear-gradient-16" x1="-865.53" y1="396.99" x2="-864.86" y2="396.99" gradientTransform="matrix(17.22, 0, 0, -48.6, 14909.29, 19409.17)" gradientUnits="userSpaceOnUse"><stop offset="0" stop-color="#5a55f8"/><stop offset="0.31" stop-color="#6e5eef"/><stop offset="0.73" stop-color="#8467e5"/><stop offset="1" stop-color="#8c6ae2"/></linearGradient><linearGradient id="linear-gradient-17" x1="-866.75" y1="398.19" x2="-866.08" y2="398.19" gradientTransform="matrix(17.66, 0, 0, -68.97, 15324.34, 27574.85)" gradientUnits="userSpaceOnUse"><stop offset="0" stop-color="#5a55f8"/><stop offset="1" stop-color="#8c6ae2"/></linearGradient><linearGradient id="linear-gradient-18" x1="-880.87" y1="397.89" x2="-880.2" y2="397.89" gradientTransform="matrix(30.25, 0, 0, -62.15, 26657.27, 24842.12)" gradientUnits="userSpaceOnUse"><stop offset="0" stop-color="#ff57bd"/><stop offset="1" stop-color="#fe6a77"/></linearGradient><linearGradient id="linear-gradient-19" x1="-820.64" y1="365.02" x2="-819.97" y2="365.02" gradientTransform="matrix(7.44, 0, 0, -5.61, 6135.02, 2169.51)" xlink:href="#linear-gradient-3"/><linearGradient id="linear-gradient-20" x1="-861.35" y1="379.26" x2="-861.35" y2="379.85" gradientTransform="matrix(14.33, 0, 0, -10.89, 12451.12, 4208.07)" gradientUnits="userSpaceOnUse"><stop offset="0" stop-color="#fff"/><stop offset="1" stop-color="#e9b6f2"/></linearGradient><linearGradient id="linear-gradient-21" x1="-892.85" y1="395.42" x2="-892.18" y2="395.42" gradientTransform="matrix(70.2, 0, 0, -42.24, 62759.21, 16761.93)" gradientUnits="userSpaceOnUse"><stop offset="0" stop-color="#fff"/><stop offset="1" stop-color="#f1d1f8"/></linearGradient><linearGradient id="linear-gradient-22" x1="-892.02" y1="393.85" x2="-891.35" y2="393.85" gradientTransform="matrix(63.6, 0, 0, -33.36, 56815.25, 13197.86)" xlink:href="#linear-gradient-3"/><linearGradient id="linear-gradient-23" x1="-886.34" y1="347.99" x2="-885.67" y2="347.99" gradientTransform="matrix(38.52, 0, 0, -4.73, 34239.13, 1697.31)" xlink:href="#linear-gradient-13"/><linearGradient id="linear-gradient-24" x1="-889.13" y1="384.15" x2="-888.46" y2="384.15" gradientTransform="matrix(48.24, 0, 0, -14.45, 42972.32, 5610.72)" gradientUnits="userSpaceOnUse"><stop offset="0" stop-color="#7523af"/><stop offset="0.12" stop-color="#6d2eb2"/><stop offset="0.34" stop-color="#594cba"/><stop offset="0.63" stop-color="#387cc7"/><stop offset="0.96" stop-color="#0abed8"/><stop offset="1" stop-color="#05c5da"/></linearGradient><linearGradient id="linear-gradient-25" x1="-823.7" y1="371.55" x2="-823.7" y2="372.87" gradientTransform="matrix(7.27, 0, 0, -8.37, 6102.18, 3171.44)" gradientUnits="userSpaceOnUse"><stop offset="0" stop-color="#170389"/><stop offset="0.42" stop-color="#3b0e9f"/><stop offset="0.78" stop-color="#5215ad"/><stop offset="1" stop-color="#5a18b2"/></linearGradient><linearGradient id="linear-gradient-26" x1="-848.8" y1="390.79" x2="-848.13" y2="390.79" gradientTransform="matrix(11.03, 0, 0, -23.95, 9435.65, 9414.58)" gradientUnits="userSpaceOnUse"><stop offset="0" stop-color="#170389"/><stop offset="0.08" stop-color="#1c058c"/><stop offset="1" stop-color="#5a18b2"/></linearGradient><linearGradient id="linear-gradient-27" x1="-863.75" y1="354.8" x2="-863.08" y2="354.8" gradientTransform="matrix(15.22, 0, 0, -5.28, 13240.83, 1935.99)" xlink:href="#linear-gradient-26"/><linearGradient id="linear-gradient-28" x1="-832.31" y1="382.8" x2="-831.64" y2="382.8" gradientTransform="matrix(8.39, 0, 0, -13.53, 7059.66, 5235.81)" xlink:href="#linear-gradient-26"/><linearGradient id="linear-gradient-29" x1="-784.77" y1="382.64" x2="-784.1" y2="382.64" gradientTransform="matrix(4.95, 0, 0, -13.42, 3961.91, 5190.08)" gradientUnits="userSpaceOnUse"><stop offset="0" stop-color="#f6e2fb"/><stop offset="1" stop-color="#ff9bbb"/></linearGradient><linearGradient id="linear-gradient-30" x1="-783.44" y1="363.91" x2="-782.77" y2="363.91" gradientTransform="matrix(4.89, 0, 0, -6.81, 3908.63, 2526.85)" xlink:href="#linear-gradient-29"/><linearGradient id="linear-gradient-31" x1="-847.12" y1="382.42" x2="-846.14" y2="382.42" gradientTransform="matrix(10.58, 0, 0, -13.14, 9041.64, 5082.4)" gradientUnits="userSpaceOnUse"><stop offset="0" stop-color="#ff9bbb"/><stop offset="1" stop-color="#f6e2fb"/></linearGradient><linearGradient id="linear-gradient-32" x1="-861.42" y1="384.18" x2="-860.97" y2="383.74" gradientTransform="matrix(14.16, 0, 0, -14.16, 12309.28, 5499.11)" xlink:href="#linear-gradient-13"/><linearGradient id="linear-gradient-33" x1="-845.05" y1="372.44" x2="-844.38" y2="372.44" gradientTransform="matrix(9.98, 0, 0, -8.5, 8544.73, 3227.87)" gradientUnits="userSpaceOnUse"><stop offset="0" stop-color="#c91c91"/><stop offset="1" stop-color="#fe6a77"/></linearGradient><linearGradient id="linear-gradient-34" x1="-838.09" y1="370.42" x2="-837.42" y2="370.42" gradientTransform="matrix(8.7, 0, 0, -7.69, 7424.73, 2923.54)" xlink:href="#linear-gradient-18"/><linearGradient id="linear-gradient-35" x1="-865.04" y1="385.98" x2="-864.37" y2="385.98" gradientTransform="matrix(15.31, 0, 0, -15.5, 13374.28, 6056.58)" xlink:href="#linear-gradient-10"/><linearGradient id="linear-gradient-36" x1="-852.11" y1="355.34" x2="-851.78" y2="354.61" gradientTransform="matrix(11.29, 0, 0, -5.19, 9751.51, 1911.5)" gradientUnits="userSpaceOnUse"><stop offset="0" stop-color="#994574"/><stop offset="1" stop-color="#43256f"/></linearGradient><linearGradient id="linear-gradient-37" x1="-857.53" y1="387.25" x2="-856.86" y2="387.25" gradientTransform="matrix(12.63, 0, 0, -17.4, 10963.04, 6802.34)" gradientUnits="userSpaceOnUse"><stop offset="0" stop-color="#fff"/><stop offset="1" stop-color="#fde1a7"/></linearGradient><linearGradient id="linear-gradient-38" x1="-814.99" y1="373.82" x2="-814.33" y2="373.82" gradientTransform="matrix(6.42, 0, 0, -8.97, 5354.85, 3414.29)" xlink:href="#linear-gradient-37"/><linearGradient id="linear-gradient-39" x1="-796.47" y1="332.72" x2="-795.81" y2="332.72" gradientTransform="matrix(5.29, 0, 0, -3.55, 4334.28, 1245.69)" xlink:href="#linear-gradient-37"/><linearGradient id="linear-gradient-40" x1="-888.62" y1="377.03" x2="-888.62" y2="377.62" gradientTransform="matrix(46.14, 0, 0, -9.66, 41132.19, 3727.16)" gradientUnits="userSpaceOnUse"><stop offset="0" stop-color="#ffe2a8"/><stop offset="1" stop-color="#a482ff"/></linearGradient><linearGradient id="linear-gradient-41" x1="-894.48" y1="332.67" x2="-893.73" y2="332.67" gradientTransform="matrix(87.19, 0, 0, -3.4, 78080.45, 1210.37)" gradientUnits="userSpaceOnUse"><stop offset="0" stop-color="#f9a144"/><stop offset="1" stop-color="#fde1a7"/></linearGradient><linearGradient id="linear-gradient-42" x1="-809.5" y1="394.56" x2="-809.5" y2="395.15" gradientTransform="matrix(6.42, 0, 0, -32.63, 5256.47, 12998.89)" xlink:href="#linear-gradient-12"/><linearGradient id="linear-gradient-43" x1="-881.7" y1="394.57" x2="-881.03" y2="394.57" gradientTransform="matrix(31.11, 0, 0, -34.49, 27452.63, 13689.83)" xlink:href="#linear-gradient-36"/><linearGradient id="linear-gradient-44" x1="-874.42" y1="392.43" x2="-873.75" y2="392.43" gradientTransform="matrix(22.6, 0, 0, -25.92, 19785.69, 10255.89)" xlink:href="#linear-gradient-12"/><linearGradient id="linear-gradient-45" x1="-887.21" y1="386.29" x2="-886.55" y2="386.29" gradientTransform="matrix(42.86, 0, 0, -14.59, 38074.08, 5738.2)" xlink:href="#linear-gradient-36"/><linearGradient id="linear-gradient-46" x1="-887.21" y1="380.4" x2="-886.54" y2="380.4" gradientTransform="matrix(42.84, 0, 0, -10.41, 38049.91, 4062.91)" xlink:href="#linear-gradient-12"/><linearGradient id="linear-gradient-47" x1="-887.6" y1="392.12" x2="-886.94" y2="392.12" gradientTransform="matrix(44.3, 0, 0, -21.73, 39364.64, 8649.89)" gradientUnits="userSpaceOnUse"><stop offset="0" stop-color="#271068"/><stop offset="1" stop-color="#8173cc"/></linearGradient><linearGradient id="linear-gradient-48" x1="-835.84" y1="379.95" x2="-835.17" y2="379.95" gradientTransform="matrix(9.12, 0, 0, -9.12, 7662.16, 3600.32)" xlink:href="#linear-gradient-36"/><linearGradient id="linear-gradient-49" x1="-821.03" y1="373.67" x2="-820.37" y2="373.67" gradientTransform="matrix(7.26, 0, 0, -7.26, 6030.11, 2840.93)" xlink:href="#linear-gradient-36"/><linearGradient id="linear-gradient-50" x1="-867.79" y1="388.2" x2="-867.79" y2="388.79" gradientTransform="matrix(18.03, 0, 0, -19.29, 15694.34, 7555.86)" gradientUnits="userSpaceOnUse"><stop offset="0" stop-color="#e8878e"/><stop offset="0.22" stop-color="#e58589"/><stop offset="0.47" stop-color="#de7f7b"/><stop offset="0.73" stop-color="#d27565"/><stop offset="1" stop-color="#c16846"/></linearGradient><linearGradient id="linear-gradient-51" x1="-876.23" y1="390.61" x2="-875.56" y2="390.61" gradientTransform="matrix(23.99, 0, 0, -23.81, 21055.95, 9351.92)" gradientUnits="userSpaceOnUse"><stop offset="0" stop-color="#e8878e"/><stop offset="1" stop-color="#f4bea3"/></linearGradient><linearGradient id="linear-gradient-52" x1="-880.86" y1="392.68" x2="-880.19" y2="392.68" gradientTransform="matrix(29.63, 0, 0, -29.9, 26132.96, 11786.24)" xlink:href="#linear-gradient-36"/><linearGradient id="linear-gradient-53" x1="-736.12" y1="387.1" x2="-736.12" y2="387.69" gradientTransform="matrix(3.6, 0, 0, -19.43, 2694.19, 7552.67)" gradientUnits="userSpaceOnUse"><stop offset="0" stop-color="#fde1a7"/><stop offset="1" stop-color="#fff"/></linearGradient><linearGradient id="linear-gradient-54" x1="-817.77" y1="380.34" x2="-817.77" y2="380.93" gradientTransform="matrix(7.19, 0, 0, -12.97, 5917.47, 4964.94)" xlink:href="#linear-gradient-53"/><linearGradient id="linear-gradient-55" x1="-798.86" y1="382.34" x2="-798.86" y2="382.93" gradientTransform="matrix(5.79, 0, 0, -14.43, 4677.7, 5551.14)" xlink:href="#linear-gradient-53"/><linearGradient id="linear-gradient-56" x1="-785.86" y1="359.27" x2="-785.86" y2="359.87" gradientTransform="matrix(5.12, 0, 0, -6.4, 4078.59, 2331.55)" xlink:href="#linear-gradient-53"/><linearGradient id="linear-gradient-57" x1="-867.05" y1="385.28" x2="-866.39" y2="385.28" gradientTransform="matrix(17.46, 0, 0, -15.92, 15181.12, 6182.53)" xlink:href="#linear-gradient-17"/><linearGradient id="linear-gradient-58" x1="-807.89" y1="357.16" x2="-807.23" y2="357.16" gradientTransform="matrix(6.33, 0, 0, -5.76, 5163.02, 2107.35)" xlink:href="#linear-gradient-18"/><linearGradient id="linear-gradient-59" x1="-850.57" y1="393.22" x2="-849.91" y2="393.22" gradientTransform="matrix(11.93, 0, 0, -33.01, 10169.71, 13014.61)" xlink:href="#linear-gradient-51"/><linearGradient id="linear-gradient-60" x1="-852.93" y1="391.65" x2="-852.27" y2="391.65" gradientTransform="matrix(12.15, 0, 0, -27.72, 10421.13, 10888.67)" xlink:href="#linear-gradient-51"/><linearGradient id="linear-gradient-61" x1="-891.91" y1="398.74" x2="-891.24" y2="398.74" gradientTransform="matrix(66.05, 0, 0, -95.57, 58939.75, 38173.21)" gradientUnits="userSpaceOnUse"><stop offset="0" stop-color="#fe6a77"/><stop offset="1" stop-color="#c91c91"/></linearGradient><linearGradient id="linear-gradient-62" x1="-711.52" y1="379.13" x2="-710.85" y2="379.13" gradientTransform="matrix(3.06, 0, 0, -11.32, 2246.91, 4345.34)" xlink:href="#linear-gradient-41"/><linearGradient id="linear-gradient-63" x1="-771.06" y1="376.7" x2="-770.54" y2="376.75" gradientTransform="matrix(4.63, 0, 0, -10.2, 3596.06, 3895.83)" xlink:href="#linear-gradient-13"/><linearGradient id="linear-gradient-64" x1="-888.57" y1="395.97" x2="-887.91" y2="395.97" gradientTransform="matrix(46.94, 0, 0, -41.14, 41769.53, 16390.12)" gradientUnits="userSpaceOnUse"><stop offset="0" stop-color="#00e2ec"/><stop offset="0.3" stop-color="#20b5df"/><stop offset="1" stop-color="#6a4ec2"/></linearGradient><linearGradient id="linear-gradient-65" x1="-788.36" y1="384.17" x2="-787.7" y2="384.17" gradientTransform="matrix(5.06, 0, 0, -12.72, 4077.8, 4986.87)" gradientUnits="userSpaceOnUse"><stop offset="0" stop-color="#5a18b2"/><stop offset="1" stop-color="#7a50c9"/></linearGradient><linearGradient id="linear-gradient-66" x1="-870.1" y1="393.1" x2="-869.43" y2="393.1" gradientTransform="matrix(18.78, 0, 0, -25.36, 16404.52, 10084.7)" xlink:href="#linear-gradient-50"/><linearGradient id="linear-gradient-67" x1="-558.54" y1="361.64" x2="-557.87" y2="361.64" gradientTransform="matrix(1.7, 0, 0, -5.22, 1013.85, 2005.03)" gradientUnits="userSpaceOnUse"><stop offset="0" stop-color="#f4bea3"/><stop offset="1" stop-color="#e8878e"/></linearGradient><linearGradient id="linear-gradient-68" x1="-818.73" y1="375.19" x2="-818.07" y2="375.19" gradientTransform="matrix(7.05, 0, 0, -7.79, 5840.25, 3045.27)" xlink:href="#linear-gradient-61"/><linearGradient id="linear-gradient-69" x1="-837.74" y1="387.15" x2="-837.07" y2="387.15" gradientTransform="matrix(9.18, 0, 0, -14.47, 7759.7, 5722.36)" xlink:href="#linear-gradient-36"/><linearGradient id="linear-gradient-70" x1="-893.59" y1="395.28" x2="-892.92" y2="395.28" gradientTransform="matrix(79.54, 0, 0, -38.03, 71124.34, 15120.82)" gradientUnits="userSpaceOnUse"><stop offset="0" stop-color="#05c5da"/><stop offset="0.04" stop-color="#0abed8"/><stop offset="0.38" stop-color="#387cc7"/><stop offset="0.66" stop-color="#594cba"/><stop offset="0.88" stop-color="#6d2eb2"/><stop offset="1" stop-color="#7523af"/></linearGradient><linearGradient id="linear-gradient-71" x1="-881.36" y1="389.05" x2="-880.69" y2="389.05" gradientTransform="matrix(28.88, 0, 0, -18.47, 25545.63, 7276.49)" xlink:href="#linear-gradient-50"/><linearGradient id="linear-gradient-72" x1="-864" y1="356.4" x2="-864" y2="356.99" gradientTransform="matrix(15.7, 0, 0, -5.25, 13646.47, 1951.64)" xlink:href="#linear-gradient-26"/><linearGradient id="linear-gradient-73" x1="-801.07" y1="303.62" x2="-801.03" y2="303.02" gradientTransform="matrix(5.65, 0, 0, -2.27, 4631.9, 783.43)" xlink:href="#linear-gradient-51"/><linearGradient id="linear-gradient-74" x1="-835.69" y1="375.53" x2="-835.02" y2="375.53" gradientTransform="matrix(8.57, 0, 0, -8.71, 7268.12, 3362.51)" xlink:href="#linear-gradient-61"/><linearGradient id="linear-gradient-75" x1="-860.75" y1="385.72" x2="-860.08" y2="385.72" gradientTransform="matrix(13.94, 0, 0, -14.34, 12103.22, 5625.98)" gradientUnits="userSpaceOnUse"><stop offset="0" stop-color="#43256f"/><stop offset="1" stop-color="#994574"/></linearGradient><linearGradient id="linear-gradient-76" x1="-889.66" y1="391.03" x2="-889.39" y2="391.69" gradientTransform="matrix(53.6, 0, 0, -21.88, 47722.78, 8671.34)" xlink:href="#linear-gradient-37"/><linearGradient id="linear-gradient-77" x1="-885.37" y1="392.64" x2="-885.16" y2="392.28" gradientTransform="matrix(37.98, 0, 0, -23.26, 33697.79, 9256.45)" xlink:href="#linear-gradient-53"/><linearGradient id="linear-gradient-78" x1="-849.61" y1="386.59" x2="-848.94" y2="386.59" gradientTransform="matrix(11.15, 0, 0, -13.68, 9557.08, 5414.38)" xlink:href="#linear-gradient-37"/><linearGradient id="linear-gradient-79" x1="-868.74" y1="391" x2="-868.08" y2="391" gradientTransform="matrix(17.31, 0, 0, -21.34, 15151.68, 8443.42)" xlink:href="#linear-gradient-37"/><linearGradient id="linear-gradient-80" x1="-852.41" y1="384.91" x2="-851.74" y2="384.91" gradientTransform="matrix(12.42, 0, 0, -14.34, 10607.47, 5598.42)" gradientUnits="userSpaceOnUse"><stop offset="0" stop-color="#fff"/><stop offset="0.45" stop-color="#feefd0"/><stop offset="0.8" stop-color="#fde5b2"/><stop offset="1" stop-color="#fde1a7"/></linearGradient><linearGradient id="linear-gradient-81" x1="-725.96" y1="372.62" x2="-725.3" y2="372.62" gradientTransform="matrix(3.15, 0, 0, -7.77, 2412, 2989.96)" xlink:href="#linear-gradient-37"/><linearGradient id="linear-gradient-82" x1="-764.65" y1="381.14" x2="-763.98" y2="381.14" gradientTransform="matrix(4.15, 0, 0, -10.79, 3271.92, 4213.47)" xlink:href="#linear-gradient-37"/><linearGradient id="linear-gradient-83" x1="-839.65" y1="353.95" x2="-838.98" y2="353.95" gradientTransform="matrix(9.84, 0, 0, -5.05, 8284.59, 1858.38)" xlink:href="#linear-gradient-37"/><linearGradient id="linear-gradient-84" x1="-845.65" y1="376.58" x2="-844.98" y2="376.58" gradientTransform="matrix(10.75, 0, 0, -8.75, 9129.56, 3398.21)" xlink:href="#linear-gradient-37"/></defs><g id="Layer_2" data-name="Layer 2"><g id="Layer_1-2" data-name="Layer 1"><g id="Success"><g id="background"><path id="Path" class="cls-1" d="M101.8,5.57c3.33,2.64,6.73,7.93,4.81,16s-2.9,12.78-.88,16.93c3.94,8.11,40.23,22,40,44.14-.24,25.08-29.18,26.14-36.62,34.22-5.49,5.95-6,22.11-23.06,31.67-14.85,8.33-44.4,9.67-63-4.57-13.21-10.1-12.57-22.42-11.93-27.6S17.26,95.5,8.34,84C-2.26,70.25-1,59.71,2.63,48.48,6.11,37.8,15.56,21.1,39.21,9.39,65.38-3.57,93.08-1.38,101.8,5.57Z"/><rect id="Rectangle" class="cls-2" x="86.79" y="13.84" width="8.89" height="7.86"/><path id="Path-2" class="cls-3" d="M18.11,42H5.25a54.58,54.58,0,0,0-2.62,6.53c-1.82,5.58-3,11-2.5,16.69h18Z"/><rect id="Rectangle-2" class="cls-4" x="89.76" y="13.84" width="2.95" height="2.61"/><rect id="Rectangle-3" class="cls-5" x="89.76" y="19.09" width="2.95" height="2.61"/><rect id="Rectangle-4" class="cls-6" x="86.79" y="16.46" width="2.95" height="2.61"/><rect id="Rectangle-5" class="cls-7" x="92.73" y="16.46" width="2.95" height="2.61"/><path id="Path-3" class="cls-8" d="M99.8,38.76V27.39a.23.23,0,0,0-.24-.22H98a.23.23,0,0,0-.24.22h0V38.76Z"/><path id="Path-4" class="cls-4" d="M97.72,38.76V26.32a1.36,1.36,0,0,0-1.44-1.27H94.84a1.36,1.36,0,0,0-1.44,1.27h0V38.76Z"/><rect id="Rectangle-6" class="cls-2" x="93.4" y="27.67" width="4.32" height="1.2"/><path id="Path-5" class="cls-7" d="M87.67,38.62h4.38L87.69,23.89a.73.73,0,0,0-.88-.45h0l-2.71.63a.63.63,0,0,0-.51.78h0Z"/><path id="Path-6" class="cls-6" d="M87.67,38.62,83.14,23.34a.24.24,0,0,0-.29-.15l-2.56.59a.21.21,0,0,0-.17.26h0l4.32,14.57h3.23Z"/><polygon id="Rectangle-7" class="cls-9" points="84.62 28.32 88.72 27.37 90.44 33.16 86.33 34.11 84.62 28.32"/><path id="Path-7" class="cls-10" d="M12.35,49.92C10,50.67,6.41,51,4.78,53.85c-1.73,3.07.36,4.49.48,6.27.11,1.56-1.14,2.8-2.64,3.51H16.25V47.71A9.66,9.66,0,0,1,12.35,49.92Z"/><path id="Path-8" class="cls-11" d="M75.55,114.89c6.72.22,25.83,1.77,24.49,9.77-1.17,7-11.79,8.89-21.77,9.92-10.66,1.11-14.11.3-21,4.68-6.6,4.2-12.53,7.15-22.58,3.12-7.5-3-7.23-10.78-5.86-12.28,3.82-4.18,9.27-3.74,12.59-5,2.72-1,7.38-6,13.44-8.08S71.57,114.76,75.55,114.89Z"/><path id="Path-9" class="cls-12" d="M80,38.81V0L78.51,0V38.81Z"/><path id="Path-10" class="cls-7" d="M10.4,48c1.74-.82-1.44-3.48,1.53-4.54H4.54Q3.9,45,3.37,46.37a2.73,2.73,0,0,1,.75-.17C6.86,46,7.3,49.5,10.4,48Z"/><path id="Path-11" class="cls-13" d="M76.81,6.84v.07h26.45a12.41,12.41,0,0,0-1.46-1.34H78.25a1.36,1.36,0,0,0-1.44,1.27Z"/><path id="Path-12" class="cls-14" d="M76.81,22.18v.07h29.64l.16-.67c0-.23.1-.45.14-.68H78.25a1.37,1.37,0,0,0-1.44,1.28Z"/><path id="Path-13" class="cls-15" d="M76.81,39.48v.08h29.58a5.78,5.78,0,0,1-.66-1.05c0-.1-.1-.2-.14-.3H78.25A1.36,1.36,0,0,0,76.81,39.48Z"/><path id="Path-14" class="cls-16" d="M5.26,60.12c-.12-1.78-2.21-3.2-.48-6.27C6.41,51,10,50.67,12.35,49.92a9.66,9.66,0,0,0,3.9-2.21V43.49H11.93c-3,1.06.21,3.72-1.53,4.54C7.3,49.5,6.86,46,4.12,46.2a2.73,2.73,0,0,0-.75.17c-.27.73-.52,1.43-.74,2.11C1,53.55-.18,58.48,0,63.63h2.6C4.12,62.92,5.37,61.68,5.26,60.12Z"/><ellipse id="Oval" class="cls-17" cx="10.31" cy="56.72" rx="2.56" ry="2.27"/></g><g id="flowerpot"><path id="Path-15" class="cls-18" d="M12.17,129.28A30.08,30.08,0,0,0,23,144a42.82,42.82,0,0,0,4,2.71l3.42-17.4Z"/><path id="Path-16" class="cls-6" d="M30.46,129.63c0-2.86-4.56-5.17-10.18-5.17-3.72,0-7,1-8.74,2.52a26.55,26.55,0,0,0,2.52,6.74,17.22,17.22,0,0,0,6.22,1.07C25.9,134.79,30.46,132.48,30.46,129.63Z"/><path id="Path-17" class="cls-19" d="M28.52,129.39c0-2.24-3.72-4-8.31-4-4.14,0-7.58,1.48-8.2,3.42a24.57,24.57,0,0,0,.93,2.59c1.41,1.25,4.14,2.1,7.27,2.1C24.8,133.45,28.52,131.63,28.52,129.39Z"/></g><g id="flower"><path id="Path-18" class="cls-20" d="M15.9,89.79c-.31.59.15,1.17,1,1.49s1.75.3,2.09,1.09.09,1.7.69,1.7,1.58-2.18.49-3.77S16.61,88.44,15.9,89.79Z"/><path id="Path-19" class="cls-21" d="M21.59,121.47c.49-1.17,5.38-7.28,14-7.87,7.76-.53,10.82,2.62,10.06,4-.51.93-2.34.66-3.09.48s-2.07-.86-2.94-.46-.77,1.42-1.66,1.81c-1.58.7-3.21-.47-4.56-.93-1.62-.56-4.35-1.06-6.3.53-2.39,2-2.89,3.64-3.64,6.6a37.91,37.91,0,0,1-1.25,4.61c-.2.23-.52.48-1.36.19s.24-4.09.15-5.63A9.43,9.43,0,0,1,21.59,121.47Z"/><path id="Path-20" class="cls-22" d="M23.58,130.31a18.37,18.37,0,0,0,1.29-3.74,9.13,9.13,0,0,1,2.64-5.42c1.35-1.07,3.09-1.59,3.84-.77s0,2-.75,2.65c-1,.84-5.44,3.16-4.66,4.43.42.69,1.18-.33,1.54-.81.62-.85,1.67-1.69,2.32-1.31s.46,1.59-1,2.35a15.61,15.61,0,0,0-3.36,2c-.59.59,0,.56-.34.9S23.56,131,23.58,130.31Z"/><path id="Path-21" class="cls-23" d="M17.27,130.29c.4-.21,0-2.07-.72-3s-2.16-1.39-2.16-2.05.37-1.25-.06-2.07-1.92-.45-2-1.65.63-2.67,1.15-5.27c.47-2.33,0-3.13-.64-3.5-.84-.45-1-1.54-.39-3.08.44-1.07.19-7.82-2.49-8-2.28-.14-3.22,3.45-3.24,5.29,0,2.7,1.14,3.37.69,4.76-.54,1.64-1.28,1.88-1.44,3.69-.14,1.5-.12,3.53,3.42,7.36,3.35,3.62,5.56,5.17,6.15,5.92C16.29,129.61,16.58,130.65,17.27,130.29Z"/><path id="Path-22" class="cls-24" d="M20.21,130.15c0-1.32.66-5.63-.72-7.91s-2.16-4.63-1.5-7.18,3.9-7.46,3.66-9.16a17.75,17.75,0,0,1,.55-10.13c1.34-4.2,4.38-7,6.48-5.89,1.44.79.78,3.77.06,4.89s-2,3.06-1.74,4.17,1,1.24,1,2.76c-.14,3-4.85,7.55-6,11.61-.92,3.37-1.25,7.44-.29,7.6s-.07,8.16-.52,9S20.21,130.15,20.21,130.15Z"/><path id="Path-23" class="cls-25" d="M17.31,94.59A2.2,2.2,0,0,1,18,97.28c-.36.89-.69,1.3-.6,1.88s1.48.85,1.92,2.16-.28,3.93-1,5.81-.56,3.26.2,3.36,1.44-.81,1.68-1.94.13-6.13,3.53-5.25c1.36.36,1.26,2.39.4,3.83-.67,1.11-2.91,3.52-4.05,6.8-1,3-1.88,5.44.2,5.81,1.78.32,2.77-1.45,3-2.59s1.05-5,5-4.35c1.86.32.7,4.32-2,6.41-1.87,1.43-4.24,3.2-4.93,5.67-.74,2.67.32,5.42-.12,6S19,131,19,130.69s.48-1.07-.36-1.67-2.79-1.43-4.12-2.27-1.2-2.12-.52-2.58,1.47.12,1.76.42c.58.61,1.92,4.26,3.52,3.3,1-.62-.61-3.63-1.76-5-1.72-2-5.58-2.83-7.76-5.42-1.54-1.82-.64-3.86.4-4.21a2.43,2.43,0,0,1,3,1.81c.39,1.54,1.15,4,3.2,2.62,2.38-1.6-1.2-4.6-3-6.31-3.26-3.17-4.82-8.15-2-8.93,1.25-.34,2.3,1.21,2.6,3,.35,2,2,8.54,3.52,7.79.92-.46-1.12-2-1.2-3.33s.12-3.19-.6-4.85S13.1,99,14.11,96.36C15,94,16.91,94.35,17.31,94.59Z"/><path id="Path-24" class="cls-26" d="M37.16,121c.82.35.54,1.45-1,2.43s-3.48,1-3.54.48,1.11-.52,2.05-1.31S36.06,120.51,37.16,121Z"/></g><g id="monitor"><path id="Path-25" class="cls-27" d="M126.77,47.05h-1.11V72h1.92A1.37,1.37,0,0,0,129,70.68V48.77C129,47.9,128.4,47.05,126.77,47.05Z"/><path id="Path-26" class="cls-28" d="M108.17,77.92a4.55,4.55,0,0,0,1.08-6.43h-7.6a4.55,4.55,0,0,1-1.08,6.43Z"/><path id="Path-27" class="cls-27" d="M108.46,78.3l-.61-.7a4.31,4.31,0,0,0,1.8-3.17,4.11,4.11,0,0,0-.76-2.65l.71-.58a4.79,4.79,0,0,1,1,3.27A5.3,5.3,0,0,1,108.46,78.3Z"/><path id="Path-28" class="cls-27" d="M108.46,78.3a4.79,4.79,0,0,0-.36-.91H95a1.36,1.36,0,0,0-1.44,1.27h0v.07h14.87Z"/><path id="Path-29" class="cls-29" d="M81.23,70.68A1.37,1.37,0,0,0,82.67,72h44a1.37,1.37,0,0,0,1.44-1.27h0V48.29A1.37,1.37,0,0,0,126.62,47h0l-43.95,1.6a1.37,1.37,0,0,0-1.44,1.27h0Z"/><path id="Path-30" class="cls-30" d="M83.07,68.83l42.43-.63V49.14L83.07,50.73Z"/><path id="Path-31" class="cls-31" d="M123.05,52.27a.87.87,0,0,1-.93.79l-23.76.8a.89.89,0,0,1-1-.72l0-.47a.87.87,0,0,1,.93-.79l23.75-.8a.89.89,0,0,1,1,.72Z"/><path id="Path-32" class="cls-6" d="M115.67,64.64a.45.45,0,0,1-.48.42h0l-21.07.32a.45.45,0,0,1-.48-.42h0v-8.4a.45.45,0,0,1,.48-.43l21.07-.31a.45.45,0,0,1,.48.42h0Z"/><ellipse id="Oval-2" class="cls-32" cx="86.84" cy="53.12" rx="1.12" ry="0.99"/><ellipse id="Oval-3" class="cls-33" cx="90.61" cy="53.05" rx="1.12" ry="0.99"/><ellipse id="Oval-4" class="cls-34" cx="94.37" cy="52.97" rx="1.12" ry="0.99"/></g><g id="robot_arm" data-name="robot arm"><path id="Path-33" class="cls-35" d="M113,58.31c-3.32-.05-15,.22-19-.21S85.48,56.18,83.85,55a4,4,0,0,1-.31-.27A5.21,5.21,0,0,1,84,57.78,5.18,5.18,0,0,1,80.87,61c.71.29,1.46.57,2.2.8,3,1,9,1.46,13,1.46h17Z"/><path id="Path-34" class="cls-36" d="M113,58.3c-1,0-2.74,0-4.79,0h0c.51.39,1.92,2.38.15,4.92h4.7Z"/><path id="Path-35" class="cls-37" d="M84,57.78a5.21,5.21,0,0,0-.41-3.08c-.56-.53-.57-1-1.22-2a6,6,0,0,1-1.09-2.44c-.12-1.15.68-2.08.58-2.82s-2.19-1-2.88.05a4.09,4.09,0,0,0-.21,2.85,2,2,0,0,1,0,1s-2,2.21-2.07,4A17.51,17.51,0,0,0,77,59.16c1.25.67,2.54,1.27,3.86,1.82A5.18,5.18,0,0,0,84,57.78Z"/><path id="Path-36" class="cls-38" d="M103.85,63.24a5.68,5.68,0,0,0-7-2.81,5.22,5.22,0,0,0-3.14,2.73c1,.05,2,.08,2.94.08Z"/><path id="Path-37" class="cls-39" d="M103.85,63.4a.18.18,0,0,1-.17-.11,5.32,5.32,0,0,0-4.93-3,5.26,5.26,0,0,0-4.89,2.94.18.18,0,0,1-.22.11.16.16,0,0,1-.12-.21v0A5.62,5.62,0,0,1,98.75,60,5.7,5.7,0,0,1,104,63.18a.17.17,0,0,1-.11.21Z"/><path id="Path-38" class="cls-39" d="M100.05,63.4a.17.17,0,0,1-.17-.12,1.31,1.31,0,0,0-1.57-.76,1.23,1.23,0,0,0-.86.76.18.18,0,0,1-.22.11.15.15,0,0,1-.12-.2,1.67,1.67,0,0,1,2-1,1.56,1.56,0,0,1,1.09,1,.16.16,0,0,1-.12.2Z"/><path id="Path-39" class="cls-40" d="M75.42,54.37a2,2,0,0,1,.46-2.46,3.23,3.23,0,0,1,3.23-.35,2.79,2.79,0,0,1,1.5,2,2.12,2.12,0,0,1-.58,1.3,1.75,1.75,0,0,1,.52,1.2,1.85,1.85,0,0,1-.63,1.28s.32,1.42-.59,1.72c-.72.25-1.27-.14-1.75-.13s-.4.28-.4.28-1,.05-1.31-.42a1.82,1.82,0,0,1-.09-1.48A3.48,3.48,0,0,1,75,55.55,1.43,1.43,0,0,1,75.42,54.37Z"/><path id="Path-40" class="cls-41" d="M79.33,59.11c.91-.31.59-1.73.59-1.73A1.62,1.62,0,0,0,80,54.91a2.1,2.1,0,0,0,.58-1.3,2.77,2.77,0,0,0-1.5-2,2.15,2.15,0,0,0-1.17-.3,1.88,1.88,0,0,1,.49,1.66,1.3,1.3,0,0,1-1.06,1,1.64,1.64,0,0,1,.63,1.4,1.59,1.59,0,0,1-.69,1.27,1.33,1.33,0,0,1,.75,1.2A2,2,0,0,1,77.33,59h0a.53.53,0,0,1,.25-.05C78.06,59,78.61,59.36,79.33,59.11Z"/><path id="Path-41" class="cls-42" d="M81.23,50.28c-.11-1.15.68-2.07.58-2.81s-2.19-1-2.88.06a4,4,0,0,0-.21,2.83,3.08,3.08,0,0,0,1.49.5A1.53,1.53,0,0,0,81.23,50.28Z"/><path id="Path-42" class="cls-43" d="M87.9,59.5a4.35,4.35,0,0,0-.74-3A13.76,13.76,0,0,1,83.85,55a4,4,0,0,1-.31-.27A5.21,5.21,0,0,1,84,57.78,5.18,5.18,0,0,1,80.87,61c.71.29,1.46.57,2.2.8a22.2,22.2,0,0,0,3,.68A5,5,0,0,0,87.9,59.5Z"/><path id="Path-43" class="cls-39" d="M108.35,63.4a.17.17,0,0,1-.18-.16.29.29,0,0,1,0-.09c1.73-2.47.33-4.37-.11-4.71a.14.14,0,0,1,0-.22.2.2,0,0,1,.26,0c.48.37,2,2.45.18,5.12A.18.18,0,0,1,108.35,63.4Z"/><path id="Path-44" class="cls-39" d="M80.16,55.09A.2.2,0,0,1,80,55a5.29,5.29,0,0,0-2.36-1,4.87,4.87,0,0,0-2.17.47.19.19,0,0,1-.24-.08.15.15,0,0,1,.09-.21,5,5,0,0,1,2.36-.49,5.52,5.52,0,0,1,2.6,1.1.16.16,0,0,1,0,.23A.27.27,0,0,1,80.16,55.09Z"/><path id="Path-45" class="cls-39" d="M80,57.63a.18.18,0,0,1-.17-.11,3.06,3.06,0,0,0-2-.82,3.38,3.38,0,0,0-1.91.82.19.19,0,0,1-.26,0,.14.14,0,0,1,0-.22,3.65,3.65,0,0,1,2.19-.92c.9.06,2.14.53,2.35,1a.15.15,0,0,1-.11.21H80Z"/><path id="Path-46" class="cls-39" d="M83.37,62a.17.17,0,0,1-.18-.15.18.18,0,0,1,.1-.15,4.75,4.75,0,0,0,2.4-2.84A4,4,0,0,0,85.34,56a.16.16,0,0,1,.08-.22.19.19,0,0,1,.24.07A4.31,4.31,0,0,1,86,59,5,5,0,0,1,83.45,62Z"/></g><g id="completed"><ellipse id="Oval-5" class="cls-44" cx="114.71" cy="62.25" rx="4.72" ry="4.18"/><path id="Path-47" class="cls-45" d="M117.49,60a.67.67,0,0,0-.85.13L114.39,63l-2.5-1.89a.52.52,0,0,0-.68,0,.39.39,0,0,0,0,.55l2.74,3a.66.66,0,0,0,.23.17.87.87,0,0,0,1.1-.28v0l2.39-3.83A.5.5,0,0,0,117.49,60Z"/></g><g id="cup"><path id="Shape" class="cls-46" d="M133.34,73.42a3,3,0,0,1,5.81,0,3,3,0,0,1-5.81,0Z"/><path id="Path-48" class="cls-47" d="M134.63,78.51H128l-1.8-9.16h10.21Z"/><ellipse id="Oval-6" class="cls-6" cx="131.33" cy="69.35" rx="5.11" ry="2.42"/><ellipse id="Oval-7" class="cls-48" cx="131.33" cy="69.18" rx="3.77" ry="1.53"/></g><g id="vapour"><path id="Path-49" class="cls-49" d="M132.48,68.85c0-.31-1.12-.47-.86-1.38s1.44-1.47,3.14-1.82c1.39-.29,3.11-.73,3.17-2,0-.94-.92-1.1-1.53-1.21s-1.3-.42-1.12-1,.87-1.55,0-2.11c-1.14-.72-4.45-.66-5.37,1.27s1.24,2.24,1.68,2.34,1.39.33,1,1.1-3,1.91-3,3.38C129.46,69.13,132.46,69.63,132.48,68.85Z"/><path id="Path-50" class="cls-50" d="M126.14,57.94c.73.08,1,.74.88,1.56s-.64,1.47-.06,2.14,1.58,1,1.26,1.42-2.92,0-3.86-1.63S124.47,57.76,126.14,57.94Z"/><path id="Path-51" class="cls-51" d="M123.84,63.84c.51.22.91,1,1.44,1.08.38.06.9.1.89.49s-.68.53-1.78.46-2-.88-1.67-1.63A.93.93,0,0,1,123.84,63.84Z"/></g><g id="table"><path id="Path-52" class="cls-52" d="M145.5,79.32H115v2.52a3.41,3.41,0,0,0,3.6,3.18h27.06q.1-1.14.12-2.37A19.58,19.58,0,0,0,145.5,79.32Z"/><ellipse id="Oval-8" class="cls-33" cx="127.26" cy="82.65" rx="1.12" ry="0.99"/><path id="Path-53" class="cls-53" d="M139.19,85.18A.17.17,0,0,1,139,85h0V80.3a.18.18,0,0,1,.36,0V85a.17.17,0,0,1-.18.16Z"/><path id="Path-54" class="cls-54" d="M87.46,78.29v2h58.17a19.12,19.12,0,0,0-.32-2Z"/></g><g id="armchair"><path id="Path-55" class="cls-55" d="M57.59,104.52c0,2.15-.05,16.81-.25,18.9.76.85,2.12-.07,2.12-.07a60,60,0,0,0,1.6-9.39c.43-4.67.56-9.31.56-9.31Z"/><path id="Path-56" class="cls-56" d="M58.36,114.64a4.25,4.25,0,0,1-.87-.06.21.21,0,0,1-.17-.26.24.24,0,0,1,.3-.15,7.36,7.36,0,0,0,3.3-.38.26.26,0,0,1,.34.06.2.2,0,0,1-.07.29h0A6.62,6.62,0,0,1,58.36,114.64Z"/><path id="Path-57" class="cls-57" d="M37,72.45C34.68,72.72,27,75,26,79.64c0,.15.27.52.33.67,1.86,5.08,10.26,11.9,13.47,12.38.14,0,.34.16.49.11,2.21-.76,4.52-4.52,6.41-5.74C47.58,86.53,37,72.45,37,72.45Z"/><path id="Path-58" class="cls-58" d="M26.93,77.63A5.15,5.15,0,0,0,26,80.1c-.42,4.21,10.6,13.33,13.93,12.81A3.27,3.27,0,0,0,41,92.46C34.16,90.08,27.92,81.2,26.93,77.63Z"/><path id="Path-59" class="cls-59" d="M57,96.36c2.16,0,13.09.17,14.95,1.17a2.19,2.19,0,0,1,1.17,3.1,1.85,1.85,0,0,1-.23.34c-.91,1.28-5.2,3.65-13.85,3.71s-14.17-1.57-14.23-3.43.92-4.64,6.24-5.1A30.4,30.4,0,0,1,57,96.36Z"/><path id="Path-60" class="cls-60" d="M59.18,105.45c8.64-.06,12.76-3.2,13.67-4.48a2.37,2.37,0,0,0,.48-1.67c-2.33,1.44-7.5,2.9-14.39,3.15a50.66,50.66,0,0,1-14.17-1.22v0C44.83,103.11,50.53,105.5,59.18,105.45Z"/><path id="Path-61" class="cls-61" d="M39.51,134.2c.66-1.67,4.75-7.77,13.18-10.46,8-2.54,14.24-.4,15.87.69s-1,3-2.42,2-5.31-2.09-9.75-1c-5.84,1.43-11.11,5.74-11.14,9C41.17,136.67,39.51,134.2,39.51,134.2Z"/><path id="Path-62" class="cls-62" d="M56.33,124.74c-5.14,1.19-12,4.5-13.13,10.52a8.41,8.41,0,0,0,2-.8c0-3.24,5.31-7.55,11.14-9,4.45-1.09,8.29,0,9.76,1a1.88,1.88,0,0,0,1.85,0C65.43,124.1,61.31,123.59,56.33,124.74Z"/><ellipse id="Oval-9" class="cls-63" cx="42.33" cy="135.22" rx="3.04" ry="2.69"/><ellipse id="Oval-10" class="cls-64" cx="68.56" cy="126.57" rx="2.42" ry="2.14"/><path id="Shape-2" class="cls-56" d="M41.39,135.22a.95.95,0,1,1,.94.83h0A.89.89,0,0,1,41.39,135.22Z"/><path id="Shape-3" class="cls-56" d="M67.62,126.57a.95.95,0,1,1,.94.84h0A.9.9,0,0,1,67.62,126.57Z"/></g><g id="head"><path id="Path-63" class="cls-65" d="M44.55,54.53c.12,1.36-.3,7-2.52,9.77.78,1.57,5,1.7,6.46,1.59a12.31,12.31,0,0,0,5.56-1.84s-1.24-5.81-2.64-7.76c-1.08-.3-2.54-.44-3.9-.83S44.55,54.53,44.55,54.53Z"/><path id="Path-64" class="cls-66" d="M53.33,47.86A24.39,24.39,0,0,0,48.65,43s-7.41-1.24-9.44,3.75c-1.19,2.91,2.36,6.13,2.36,6.13a7.27,7.27,0,0,1,.81.34,1.36,1.36,0,0,0-.2,2.07,1.82,1.82,0,0,0,2.34.18,1.51,1.51,0,0,0,.48-.59l.08.07c1.21,1.07,5.82,3.22,8.54,1C56,54.06,54.82,50.07,53.33,47.86Z"/><path id="Path-65" class="cls-67" d="M52.73,37c-.9-.53-2.82.43-3.84,1.35s-2.42,1.61-2.8,1.24.59-.76.14-1.27-3.26.14-4.52,2-2.26,4.48-3.33,4.76-.76-1.18-1.86-1.22a3.62,3.62,0,0,0-2.84,2.22c-.5,1.47,0,2.53.76,2.58,1.41.1,2.22-1.82,3.2-1.38.67.3.22,1.58-.14,2.68a3.29,3.29,0,0,0,1.55,3.57,4.8,4.8,0,0,0,2.75.92s0-.1,0-.15a1.56,1.56,0,0,1,1.56-1.46,1.69,1.69,0,0,0,0-1.11c-.48-1.12-3.86-3.55-3.22-4.82.38-.76,1.4-.78,3.24-.83s3,.08,3.16-.55-1.43-.48-1.32-.87c.18-.64,3.21-.13,5.8-2.55S53.63,37.54,52.73,37Z"/><path id="Path-66" class="cls-68" d="M49.27,52.82s1.24-.09,1.92-.16,2.38-.17,2.38-.17-.6,1.66-2,1.8S49.27,52.82,49.27,52.82Z"/><path id="Path-67" class="cls-69" d="M45.91,50.31a.13.13,0,0,1-.11-.05A1,1,0,0,1,46,48.88a1.38,1.38,0,0,1,1.42-.21.09.09,0,0,1,0,.14.14.14,0,0,1-.14,0,1.14,1.14,0,0,0-1.15.17A.84.84,0,0,0,46,50.15a.11.11,0,0,1,0,.15Z"/><path id="Path-68" class="cls-69" d="M50.58,47.13a.12.12,0,0,1-.12-.08.84.84,0,0,1,.23-.89A1.2,1.2,0,0,1,51.9,46a.1.1,0,0,1,.06.14.12.12,0,0,1-.16.06.93.93,0,0,0-.94.1.66.66,0,0,0-.17.69.09.09,0,0,1-.08.12h0Z"/><path id="Path-69" class="cls-70" d="M45.75,22.05a2.74,2.74,0,0,1,.09.39c0,.11,0,.22,0,.33s0,.43,0,.64c0,.43,0,.85,0,1.27,0,.85-.14,1.69-.2,2.53s-.11,1.67-.12,2.51c0,.21,0,.42,0,.63l0,.62.06.63a4.21,4.21,0,0,0,.11.6.46.46,0,0,1-.38.56.53.53,0,0,1-.64-.34.3.3,0,0,1,0-.13h0c0-.23,0-.43,0-.65s0-.42,0-.63l0-.62c0-.21,0-.42-.06-.63-.09-.83-.21-1.66-.37-2.49l-.46-2.48c-.07-.41-.15-.83-.21-1.23,0-.21-.05-.41-.07-.61a2.64,2.64,0,0,0,0-.29v-.23l.05-.27a1.11,1.11,0,0,1,1.28-.83,1.06,1.06,0,0,1,.91.73Z"/><path id="Path-70" class="cls-71" d="M37.79,26.76a5,5,0,0,0,.23.69l.33.8c.22.55.46,1.1.66,1.67l.31.85c.12.28.24.55.38.82a8.83,8.83,0,0,0,.43.8,3,3,0,0,0,.24.38,3.49,3.49,0,0,0,.25.32h0a.35.35,0,0,1,0,.53.47.47,0,0,1-.6,0h0a3.23,3.23,0,0,1-.35-.4c-.11-.13-.2-.26-.3-.39L38.78,32l-.57-.77c-.19-.25-.39-.5-.58-.76a11.87,11.87,0,0,1-1-1.63c-.14-.28-.28-.57-.4-.87-.06-.15-.12-.31-.17-.48s-.05-.17-.07-.26a.77.77,0,0,1,0-.15l0-.1V27a.85.85,0,0,1,.84-.89.93.93,0,0,1,1,.67Z"/><path id="Path-71" class="cls-72" d="M52.4,24.54l-.2.94c-.07.32-.14.64-.22,1a10.72,10.72,0,0,1-.67,1.9,5.21,5.21,0,0,1-.24.47,1.76,1.76,0,0,0-.14.23l-.14.2c-.18.27-.36.54-.53.81a8.2,8.2,0,0,0-.46.82,1.74,1.74,0,0,0-.21.76.48.48,0,0,1-.49.49.5.5,0,0,1-.55-.43v-.11a3.59,3.59,0,0,1,.37-1l.45-.89.45-.86.11-.21a1.86,1.86,0,0,0,.1-.2c.06-.13.11-.26.16-.4a8.78,8.78,0,0,0,.36-1.75,16.17,16.17,0,0,0,.07-1.84.9.9,0,0,1,1.78,0,.76.76,0,0,1,0,.15Z"/><path id="Path-72" class="cls-73" d="M55.36,29.79a3.18,3.18,0,0,1-.76.88c-.27.24-.55.45-.82.66s-.55.42-.79.64l-.34.33a.92.92,0,0,0-.19.33v0a.23.23,0,0,1-.25.18.21.21,0,0,1-.2-.2,1.1,1.1,0,0,1,.16-.58,2.71,2.71,0,0,1,.3-.45c.22-.28.45-.54.68-.79l.68-.75a3.8,3.8,0,0,0,.5-.69.6.6,0,0,1,.74-.28.49.49,0,0,1,.32.65l0,0v0Z"/><path id="Shape-4" class="cls-74" d="M42.09,53.43a12.34,12.34,0,0,1,2.1-2.7,2.16,2.16,0,0,1,.5-3.27,2.87,2.87,0,0,1,3.54.28A2.22,2.22,0,0,1,49.46,47a1.91,1.91,0,0,1,.44-2.66A1.94,1.94,0,0,1,51,44.05a2.89,2.89,0,0,1,2.2,1.11,2,2,0,0,1-.21,3,1.89,1.89,0,0,1-1.05.29,2.88,2.88,0,0,1-2.13-1c-.52-.06-1,.42-1.23.69a2.19,2.19,0,0,1-.85,3.22A2.9,2.9,0,0,1,44.52,51,13.89,13.89,0,0,0,42.91,53a1.65,1.65,0,0,0-.76.49Z"/><path id="Path-73" class="cls-5" d="M37.52,47.71h0a.44.44,0,0,1-.46-.43h0a5.17,5.17,0,0,1,.72-2.57.52.52,0,0,1,.67-.08.38.38,0,0,1,.1.59A4.69,4.69,0,0,0,38,47.3.46.46,0,0,1,37.52,47.71Z"/><path id="Path-74" class="cls-75" d="M49.76,47.4c1.07.36,3.52,1.74,3.65,2.46.1.54-1.76,1.09-1.9.91s-.64-1.14-1.28-2a7.88,7.88,0,0,1-1-1.29A1.08,1.08,0,0,1,49.76,47.4Z"/></g><g id="body"><path id="Path-75" class="cls-76" d="M30.21,42.09a33.48,33.48,0,0,1-.27-9.79c.12-1.8,1.41-3.31,2-4.65.47-1.1,1.13-1.8.69-2.07-.65-.39-1.83,1-1.83,1S31,23,30.09,23s-.27,2.1-.69,2.21-1.13-1.94-1.77-1.86c-.35,0-.4.78-.4.78a.33.33,0,0,0-.38,0c-.28.21,0,1.47-.27,2-.1-.13-.17-.22-.32-.19-1.13.21-.93,5.38-1.1,6.54a54.35,54.35,0,0,0-.23,10A16.71,16.71,0,0,0,30.21,42.09Z"/><path id="Path-76" class="cls-77" d="M68,39c-.23-1.95-.42-3.41-.46-3.9-.12-1.66-.2-3-.4-4.6a28.38,28.38,0,0,0-1-3.83c-.12-.57.11-1.34-.2-2s-.58-.32-.58-.32,0-.77-.4-.74-1,2.47-1.36,2.51,0-2.79-.5-2.84-.68.44-1,2c-.33,1.33.15,3.68-.09,3.68s-.42-1.06-.69-1.76-.59-1.36-1-1.32-.47.88-.29,2.07c.14.95,1.85,5.74,2.57,7.92a16.24,16.24,0,0,1,.55,3.73A10.82,10.82,0,0,0,68,39Z"/><path id="Path-77" class="cls-78" d="M26.54,26a1,1,0,0,1,.21.44,1,1,0,0,1,0,.24,2.11,2.11,0,0,1,0,.25.13.13,0,0,1-.14.09.11.11,0,0,1-.1-.13h0a.76.76,0,0,0,.06-.2.82.82,0,0,0,0-.22.88.88,0,0,0-.11-.42s0,0,0,0h0A0,0,0,0,1,26.54,26Z"/><path id="Path-78" class="cls-78" d="M27.27,23.92a2.65,2.65,0,0,0,.06.84c0,.14.07.28.1.42s.08.27.11.42a.11.11,0,0,1-.1.13.12.12,0,0,1-.14-.09h0c0-.14,0-.28-.06-.42s0-.29-.06-.43a2.82,2.82,0,0,1,0-.87s0,0,0,0h0S27.27,23.9,27.27,23.92Z"/><path id="Path-79" class="cls-78" d="M29.6,24.65a6.27,6.27,0,0,1,0,.75c0,.12,0,.24,0,.37s0,.24-.06.37a.12.12,0,0,1-.14.09.11.11,0,0,1-.1-.13h0c0-.11.07-.23.1-.35s.05-.24.08-.36a6.21,6.21,0,0,0,.13-.73s0,0,0,0h0A0,0,0,0,1,29.6,24.65Z"/><path id="Path-80" class="cls-78" d="M31.14,26.17a3.09,3.09,0,0,0-.5.7l-.42.74a8.33,8.33,0,0,1-.48.73,2,2,0,0,1-.68.63.13.13,0,0,1-.16-.06.1.1,0,0,1,0-.12h0a1.78,1.78,0,0,0,.64-.54,6.72,6.72,0,0,0,.5-.69l.47-.72a3.22,3.22,0,0,1,.54-.69,0,0,0,0,1,0,0,0,0,0,0,1,0,0Z"/><path id="Path-81" class="cls-78" d="M61.85,28.58a1.2,1.2,0,0,0,.35.46c.15.13.31.25.48.37l.51.35a2.52,2.52,0,0,1,.25.21.57.57,0,0,1,.19.3.1.1,0,0,1-.1.12.13.13,0,0,1-.14-.08h0v0h0a.45.45,0,0,0-.11-.19,2.09,2.09,0,0,0-.22-.2l-.49-.37a4.76,4.76,0,0,1-.47-.41,1.26,1.26,0,0,1-.35-.51h0s0-.05,0-.06h0S61.85,28.56,61.85,28.58Z"/><path id="Path-82" class="cls-78" d="M65.47,24.21a3,3,0,0,1,0,.52c0,.17,0,.34,0,.51,0,.35,0,.69-.06,1a.12.12,0,0,1-.13.09.1.1,0,0,1-.11-.11h0c.06-.33.1-.68.13-1,0-.18,0-.35,0-.52a2.9,2.9,0,0,0,0-.51,0,0,0,0,1,0,0h0A0,0,0,0,1,65.47,24.21Z"/><path id="Path-83" class="cls-79" d="M61,81.91A27.41,27.41,0,0,1,62.6,68.3c1.34-3.08,5.3-8.57,6.18-13.65.59-3.42-.19-11-.75-15.68a10.76,10.76,0,0,1-4.88.6A43.66,43.66,0,0,1,63,46.89a30.55,30.55,0,0,1-6.12,13.5,10.27,10.27,0,0,1-8.59,3.93c-3.63,0-10.41-.59-14.83-11.32a50.88,50.88,0,0,1-3.21-10.91,16.71,16.71,0,0,1-5.28.36,60.13,60.13,0,0,0,1.87,12,60.5,60.5,0,0,0,6.36,14.49c2.17,3.61,3.3,9.83,5.61,15,1.46,3.3,3.44,8.19,7,11.47C46.19,90.69,53.13,86,61,81.91Z"/><path id="Path-84" class="cls-53" d="M26.28,49.16l-.66,0a.17.17,0,0,1-.16-.18.19.19,0,0,1,.2-.14,10.63,10.63,0,0,0,5.73-1.4.19.19,0,0,1,.25.05.16.16,0,0,1-.06.22h0A11.67,11.67,0,0,1,26.28,49.16Z"/><path id="Path-85" class="cls-53" d="M27.78,57.71a.16.16,0,1,1,0-.32,17.57,17.57,0,0,0,6-3.32A.19.19,0,0,1,34,54a.14.14,0,0,1,0,.22h0a17.79,17.79,0,0,1-6.26,3.45Z"/><path id="Path-86" class="cls-53" d="M30.41,64a.17.17,0,0,1-.18-.16.18.18,0,0,1,.16-.16c1.13-.15,5.84-3.22,6.54-4.44a.2.2,0,0,1,.24-.06.14.14,0,0,1,.08.21c-.75,1.31-5.59,4.45-6.81,4.61Z"/><path id="Path-87" class="cls-53" d="M33.16,69.06a.17.17,0,0,1-.18-.15.16.16,0,0,1,.14-.16c1-.2,7.24-4,8.33-5.88a.19.19,0,0,1,.24-.08.15.15,0,0,1,.09.21h0c-1.13,2-7.43,5.83-8.57,6.05Z"/><path id="Path-88" class="cls-53" d="M65.65,47.09a13.05,13.05,0,0,1-2.72-.25.17.17,0,0,1-.13-.2.2.2,0,0,1,.23-.11h0c1.14.3,4.41.4,5.67-.18a.19.19,0,0,1,.24.07.15.15,0,0,1-.08.21A8.68,8.68,0,0,1,65.65,47.09Z"/><path id="Path-89" class="cls-53" d="M67.57,53.78a19.86,19.86,0,0,1-6.23-1.26.15.15,0,0,1-.07-.22.2.2,0,0,1,.23-.07,17.65,17.65,0,0,0,7,1.18.18.18,0,0,1,.2.13.17.17,0,0,1-.15.19A5.93,5.93,0,0,1,67.57,53.78Z"/><path id="Path-90" class="cls-53" d="M66.81,60.51h0a11.28,11.28,0,0,1-7.73-3.45.15.15,0,0,1,.06-.22.21.21,0,0,1,.24,0,10.81,10.81,0,0,0,7.44,3.31.16.16,0,1,1,0,.32Z"/><path id="Path-91" class="cls-53" d="M63.05,67.51h0c-3.43-.29-8.28-3.72-8.81-4.85a.15.15,0,0,1,.1-.21.17.17,0,0,1,.23.08c.5,1.06,5.27,4.38,8.51,4.66a.18.18,0,0,1,.17.17.18.18,0,0,1-.18.15Z"/><path id="Path-92" class="cls-53" d="M43.24,70.06a66.49,66.49,0,0,1-9.83-.47.15.15,0,0,1-.12-.19.18.18,0,0,1,.23-.11c2.09.55,20.12,1,29-1.14a.18.18,0,0,1,.22.11.16.16,0,0,1-.12.2h0C57.59,69.68,49.61,70.06,43.24,70.06Z"/><path id="Path-93" class="cls-53" d="M36.43,77.63a.17.17,0,0,1-.18-.16.17.17,0,0,1,.1-.14c3.38-1.62,12.92-4.61,24.84-4.31a.16.16,0,0,1,.17.16h0a.17.17,0,0,1-.17.16h0C49.34,73,39.87,76,36.52,77.62Z"/><path id="Path-94" class="cls-53" d="M38.38,83.18A.17.17,0,0,1,38.2,83a.16.16,0,0,1,.07-.13c5.53-3.68,13.1-5.62,22.49-5.76a.16.16,0,1,1,0,.32c-9.31.14-16.81,2.05-22.27,5.69A.2.2,0,0,1,38.38,83.18Z"/><path id="Path-95" class="cls-53" d="M40.8,88.52a.18.18,0,0,1-.18-.17.21.21,0,0,1,0-.1c.68-.69,11.13-6.9,20.16-7.78a.17.17,0,0,1,.2.13h0a.16.16,0,0,1-.16.17h0c-8.51.83-19.09,6.83-19.93,7.68A.16.16,0,0,1,40.8,88.52Z"/><path id="Path-96" class="cls-80" d="M69,51c-3.43,2.2-1.61,5.92-1,6.69a18.41,18.41,0,0,0,.84-3.05A20.16,20.16,0,0,0,69,51Z"/><path id="Path-97" class="cls-81" d="M26.11,51.53c.2,1,.43,1.93.69,2.89s.61,2.09,1,3.13A3.33,3.33,0,0,0,26.11,51.53Z"/></g><g id="left_leg" data-name="left leg"><path id="Path-98" class="cls-82" d="M74.77,89.13s-16.43,6.63-14.63,7.62,6.62,2.29,10.52,3.51c4.42,1.37,8.45,3.08,8.45,3.08s-2.85,2.45-5.6,5.35c-.22.23-.46.48-.7.76a12.24,12.24,0,0,0,6.8,4c4.18-2.54,11.27-7.07,11.69-10.84C91.87,97.42,76.06,89.64,74.77,89.13Z"/><path id="Path-99" class="cls-83" d="M89.17,98.4a5.71,5.71,0,0,0,.37,7.51,6.6,6.6,0,0,0,1.76-3.33C91.44,101.3,90.57,99.86,89.17,98.4Z"/><path id="Path-100" class="cls-84" d="M72.81,109.45a64.75,64.75,0,0,0-5.68,7.6,6.31,6.31,0,0,0,.65,3.15c.52,1.13,3.4,4.61,3.92,4.18.71-.58-.12-4.92.16-5.74s2.51-2,5.57-3.9l2.18-1.32A12.21,12.21,0,0,1,72.81,109.45Z"/><path id="Path-101" class="cls-85" d="M81,112.74h0c-2.39-.37-6.53-3.23-7.35-4.2a.14.14,0,0,1,0-.22.19.19,0,0,1,.25,0c.71.84,4.79,3.72,7.13,4.07a.17.17,0,0,1,.14.19.17.17,0,0,1-.17.13Z"/><path id="Path-102" class="cls-85" d="M76.42,110.67a.15.15,0,0,1-.11-.28s5.82-4.53,5.82-7.37c0-3.67-14.72-8-18.36-8.88a.16.16,0,0,1-.13-.2.18.18,0,0,1,.21-.11h0c.19,0,18.63,4.69,18.63,9.19,0,3-5.71,7.43-5.95,7.62A.21.21,0,0,1,76.42,110.67Z"/><path id="Path-103" class="cls-86" d="M68,115.75a10.48,10.48,0,0,0-.82,1.3,4,4,0,0,0,.17,1.78A2.42,2.42,0,0,0,68,115.75Z"/></g><g id="left_slipper" data-name="left slipper"><path id="Path-104" class="cls-87" d="M67.88,120.8c.36-.16,4-.72,4.59-.12.25.24.12,4-.56,4.3s-2.4-1.53-2.84-2.07A17.54,17.54,0,0,1,67.88,120.8Z"/><path id="Path-105" class="cls-88" d="M71.54,125.29a.59.59,0,0,1-.23-.05c-4.39-2.17-5.4-7.94-5.4-8a.43.43,0,0,1,.39-.49.47.47,0,0,1,.55.34v0c0,.05,1,5.43,4.92,7.37a.39.39,0,0,1,.18.57.47.47,0,0,1-.42.22Z"/></g><g id="right_leg" data-name="right leg"><path id="Path-106" class="cls-89" d="M98.88,84.87c-4.5-4-10.83-8.32-17.67-8.44-9-.16-18,4.63-20.23,5.48C53.13,86,46.19,90.69,45.82,95.4a13,13,0,0,0,9.47,3.47c13.29-.39,17.45-10.69,26.86-10.77a26.22,26.22,0,0,1,10.77,2.72A39.88,39.88,0,0,0,98.88,84.87Z"/><path id="Path-107" class="cls-90" d="M55,95.19a12.26,12.26,0,0,1-8-3A.15.15,0,0,1,47,92a.2.2,0,0,1,.25,0,11.94,11.94,0,0,0,9.29,2.79c2.83-.33,5.62-2,8.85-4,4.43-2.66,9.46-5.67,16-5.93A24.05,24.05,0,0,1,94.55,88a.14.14,0,0,1,0,.22.2.2,0,0,1-.25,0h0a23.74,23.74,0,0,0-13-3c-6.43.25-11.4,3.24-15.8,5.88-3.26,2-6.09,3.65-9,4A13.6,13.6,0,0,1,55,95.19Z"/><path id="Path-108" class="cls-90" d="M51.75,94.75a.17.17,0,0,1-.19-.15.15.15,0,0,1,.09-.14,2.5,2.5,0,0,0,.88-2c.18-1.94-.42-4.47-.88-4.84a.16.16,0,0,1,0-.23.21.21,0,0,1,.26,0h0c.57.47,1.18,3.13,1,5.11a2.71,2.71,0,0,1-1,2.25Z"/><path id="Path-109" class="cls-91" d="M112.17,91.61c-.4-.42-5.29.34-6.58-.19-.5-.2-3-3.25-6.71-6.55a40.36,40.36,0,0,1-6,5.95c4.82,2.19,8.72,4.91,10.41,5C106.4,95.85,112.57,92,112.17,91.61Z"/><path id="Path-110" class="cls-90" d="M91.8,90.49a.18.18,0,0,1-.17-.17.16.16,0,0,1,.08-.13c.81-.4,4.92-4,5.89-6.33a.19.19,0,0,1,.23-.09.15.15,0,0,1,.11.2c-1,2.46-5.19,6.07-6,6.5Z"/><path id="Path-111" class="cls-92" d="M82.11,79.53a7,7,0,0,0,4.75-2.09,19.23,19.23,0,0,0-5.65-1,28.73,28.73,0,0,0-4.82.35A7.17,7.17,0,0,0,82.11,79.53Z"/><path id="Path-112" class="cls-93" d="M103.76,94.44a2.41,2.41,0,0,0-2.05.87,4.73,4.73,0,0,0,1.62.47,7.08,7.08,0,0,0,2.15-.37A2,2,0,0,0,103.76,94.44Z"/></g><g id="right_slipper" data-name="right slipper"><path id="Path-113" class="cls-94" d="M109.67,90.38c-.52.15-1.47,2.7.11,4.65.44-.38,2.08-1.84,2.57-2.33s2.15-2.53,2.27-2.71S111.75,89.8,109.67,90.38Z"/><path id="Path-114" class="cls-95" d="M106.07,98.33a.47.47,0,0,1-.49-.43.42.42,0,0,1,.21-.35c.46-.29,6.32-4.58,8.2-7.49a.52.52,0,0,1,.66-.14.4.4,0,0,1,.17.57c-2,3.08-8,7.44-8.47,7.76A.57.57,0,0,1,106.07,98.33Z"/></g><g id="movement"><path id="Path-115" class="cls-96" d="M65.38,109.41h0a.28.28,0,0,0,.19-.37.33.33,0,0,0-.42-.16h0c-.74.25-1.55.48-2.62.75-.8.19-1.65.36-2.69.55a52.66,52.66,0,0,1-5.47.65c-1.41.09-2.81.13-4.18.13a55.2,55.2,0,0,1-6.81-.39,36.3,36.3,0,0,1-5.31-1,17,17,0,0,1-2.46-.85,8.61,8.61,0,0,1-1.09-.56l-.25-.16-.11-.08-.12-.09c-.17-.12-.33-.25-.47-.37a5.2,5.2,0,0,1-1.4-1.71,3.27,3.27,0,0,1-.31-1.94,4.26,4.26,0,0,1,.82-1.89,5.16,5.16,0,0,1,.73-.82,3,3,0,0,1,.8-.54h0a.86.86,0,0,0,.49-1.21,1,1,0,0,0-.92-.52,1.12,1.12,0,0,0-.44.09,5,5,0,0,0-1.42.92,6.84,6.84,0,0,0-1,1.11,5.83,5.83,0,0,0-1.09,2.67,4.76,4.76,0,0,0,.05,1.46,5,5,0,0,0,.5,1.39,7.37,7.37,0,0,0,1.91,2.19c.19.14.38.29.58.42l.16.11.16.1.33.19a11.65,11.65,0,0,0,1.34.61,18.49,18.49,0,0,0,2.75.81,37.66,37.66,0,0,0,5.6.74c1.19.07,2.43.11,3.78.11.59,0,1.18,0,1.83,0,1.74,0,3.56-.14,5.57-.34A62.74,62.74,0,0,0,65.38,109.41Z"/><path id="Path-116" class="cls-97" d="M76.44,129.19a19.46,19.46,0,0,0,4-1.6,9.58,9.58,0,0,0,3.27-2.8,5.94,5.94,0,0,0,1.06-4.24,5.26,5.26,0,0,0-.33-1.09,5,5,0,0,0-.61-1,4.29,4.29,0,0,0-1-.94,3.81,3.81,0,0,0-.65-.38l-.37-.15-.21-.06-.07,0h-.09a1.37,1.37,0,0,0-1.64.88,1.18,1.18,0,0,0,.85,1.42l.07,0,.1,0,.06,0,.19.13h0a2.86,2.86,0,0,1,.43.42,3.9,3.9,0,0,1,.67,1.23,4.29,4.29,0,0,1,.28,1.45,2.6,2.6,0,0,1,0,.39l0,.17,0,.08h0l0,.1A4.26,4.26,0,0,1,82,124a7.78,7.78,0,0,1-2.45,2.53,15.7,15.7,0,0,1-3.5,1.75,31,31,0,0,1-8,1.67c-1.15.1-2.32.14-3.48.14a43.48,43.48,0,0,1-4.84-.27h0a.21.21,0,1,0,0,.41h0a55,55,0,0,0,6.15.35c.77,0,1.53,0,2.26,0,1.42-.06,2.82-.2,4.22-.4A32.63,32.63,0,0,0,76.44,129.19Z"/><path id="Path-117" class="cls-98" d="M88.75,122.24a.11.11,0,0,0-.12.1,5.45,5.45,0,0,1-.25,1.2,7.43,7.43,0,0,1-.51,1.11,8.25,8.25,0,0,1-1.58,1.92A10.18,10.18,0,0,1,84.21,128c-.36.18-.74.35-1.12.5l-.55.21-.27.09-.11,0-.09,0-.08,0a.69.69,0,0,0-.52.65.71.71,0,0,0,.76.64h.2l.2,0,.39-.08a4.69,4.69,0,0,0,.75-.24,6.6,6.6,0,0,0,1.31-.71,10,10,0,0,0,2.12-1.91,7.82,7.82,0,0,0,1.37-2.34,5,5,0,0,0,.29-2.57.1.1,0,0,0-.1-.09v-.11h0Z"/><path id="Path-118" class="cls-99" d="M121.34,93.39a.84.84,0,0,0-.88.78,6.48,6.48,0,0,1-.3,1.74,12.79,12.79,0,0,1-.68,1.74,15.58,15.58,0,0,1-2.12,3.22,18.18,18.18,0,0,1-2.93,2.74,14.19,14.19,0,0,1-3.66,2h0a.13.13,0,0,0-.06.18.15.15,0,0,0,.13.06h.07c1.36-.68,2.58-1.29,3.74-2a18.89,18.89,0,0,0,3.3-2.56,17.94,17.94,0,0,0,2.63-3.17,15.76,15.76,0,0,0,1-1.8,8.43,8.43,0,0,0,.65-2v0a.49.49,0,0,0,0-.12.83.83,0,0,0-.88-.79v-.11h0v.11Z"/><path id="Path-119" class="cls-100" d="M28.81,73.5h0a.21.21,0,0,0,.07-.3.27.27,0,0,0-.34-.07h0c-.6.35-1.23.67-1.83,1l-.63.32a27.26,27.26,0,0,0-2.42,1.4,9.71,9.71,0,0,0-2.19,1.88,3.79,3.79,0,0,0-.73,1.39,3.56,3.56,0,0,0,0,1.59v.08a1.06,1.06,0,0,0,1.06.79,1,1,0,0,0,1.07-1,.85.85,0,0,0-.08-.35,2.13,2.13,0,0,1-.23-.88,2,2,0,0,1,.27-.95,7.13,7.13,0,0,1,1.56-1.87,20.8,20.8,0,0,1,2.07-1.65A17.41,17.41,0,0,1,28.81,73.5Z"/><path id="Path-120" class="cls-101" d="M127.42,92.53a.37.37,0,0,0-.3-.14H127c-.49.07-.52.53-.46,1.48a6.31,6.31,0,0,1,0,1.15,3.18,3.18,0,0,1-.69,1.46c-.14.19-.31.43-.26.49h0a3.16,3.16,0,0,0,1.94-2.26A2.73,2.73,0,0,0,127.42,92.53Z"/><path id="Path-121" class="cls-102" d="M97.57,99.73a.79.79,0,0,0-.64-.29h-.14c-.75.09-.71.84-.58,2.07a8,8,0,0,1,.06,1.55,4.29,4.29,0,0,1-.82,2c-.27.41-.43.66-.31.76l.07,0c.45,0,1.57-1.18,2.24-3C98,101.47,98,100.28,97.57,99.73Z"/><path id="Path-122" class="cls-103" d="M26.56,70.2a.55.55,0,0,0-.17-.43,1.15,1.15,0,0,0-.75-.2,6.3,6.3,0,0,0-2.95,1,14.73,14.73,0,0,0-2.7,2l.06,0a10.32,10.32,0,0,1,2.5-1,17.84,17.84,0,0,1,1.78-.29C25.75,71,26.56,70.91,26.56,70.2Z"/><path id="Path-123" class="cls-104" d="M44.48,105.91a2.1,2.1,0,0,0-1.35-.41h-.36a6.06,6.06,0,0,1-3.57-.92,3.79,3.79,0,0,1-1.57-2.79v-.11l-.08.1a3.51,3.51,0,0,0,.79,3.2,5.69,5.69,0,0,0,3.93,1.86h.55c1.43,0,1.69-.3,1.75-.59A.33.33,0,0,0,44.48,105.91Z"/></g></g></g></g></svg>