<svg xmlns="http://www.w3.org/2000/svg" viewBox="0 0 72.96 97.61"><defs><style>.cls-1{fill:#5dfdcb;}.cls-2{fill:#fff;}</style></defs><g id="Layer_2" data-name="Layer 2"><g id="Layer_1-2" data-name="Layer 1"><polygon class="cls-1" points="72.96 0 0.01 0 0.01 81.4 47.9 81.4 72.96 46.07 72.96 0"/><path class="cls-2" d="M52,37.94a30.26,30.26,0,0,1-2.55,12.94,25.84,25.84,0,0,1-6.73,9A27.27,27.27,0,0,1,33.27,65a35.33,35.33,0,0,1-10.65,1.65H3.08V9.54H22A43.3,43.3,0,0,1,33,11a26.47,26.47,0,0,1,9.62,4.68,23.53,23.53,0,0,1,6.8,8.75A31.63,31.63,0,0,1,52,37.94Zm-13.17,0a19.52,19.52,0,0,0-1.44-8,13.33,13.33,0,0,0-3.85-5.08,14.75,14.75,0,0,0-5.48-2.71,25.05,25.05,0,0,0-6.32-.8H15.44v33.4h6A25.3,25.3,0,0,0,28,53.87a14.83,14.83,0,0,0,5.55-2.79,13.63,13.63,0,0,0,3.85-5.16A19.57,19.57,0,0,0,38.82,37.94Z"/><path class="cls-2" d="M3.84,77.11v-6.3H6l.52,0a4.26,4.26,0,0,1,.5.06,2.54,2.54,0,0,1,.47.14,2,2,0,0,1,.45.26,2,2,0,0,1,.52.55,3.6,3.6,0,0,1,.32.69,3.82,3.82,0,0,1,.16.73A4.31,4.31,0,0,1,9,74a4.68,4.68,0,0,1,0,.64,4.38,4.38,0,0,1-.12.63,3.13,3.13,0,0,1-.24.6,2,2,0,0,1-.36.52,1.91,1.91,0,0,1-.47.39A2.38,2.38,0,0,1,7.2,77a2.8,2.8,0,0,1-.59.11c-.2,0-.41,0-.62,0Zm.6-.51H5.86a6.06,6.06,0,0,0,.76,0,2.18,2.18,0,0,0,.72-.24,1.34,1.34,0,0,0,.51-.43,2,2,0,0,0,.32-.59,2.86,2.86,0,0,0,.17-.67A5.16,5.16,0,0,0,8.39,74a5.34,5.34,0,0,0-.05-.69,3.06,3.06,0,0,0-.16-.68A2.23,2.23,0,0,0,7.85,72a1.51,1.51,0,0,0-.55-.44,1.77,1.77,0,0,0-.66-.2,6.79,6.79,0,0,0-.78,0H4.44Z"/><path class="cls-2" d="M11.9,77.11v-6.3h4.19v.51H12.5v2.27h3.24v.51H12.5v2.5h3.67v.51Z"/><path class="cls-2" d="M23.93,76.27h0l1.37-5.46h.62l-1.66,6.3h-.65l-1.46-5.56h0l-1.46,5.56H20l-1.63-6.3H19l1.35,5.46h0l1.46-5.46h.66Z"/><path class="cls-2" d="M28.5,77.11v-6.3h4.19v.51H29.1v2.27h3.24v.51H29.1v2.5h3.68v.51Z"/><path class="cls-2" d="M37.52,73.85l1.9-3h.69l-2.28,3.55v2.75h-.6v-2.7L35,70.81h.68Z"/><path class="cls-1" d="M0,83.59H2.12L2.88,88,4,83.59H6.11L7.23,88,8,83.59h2.11l-1.6,7.87H6.32l-1.26-5-1.26,5H1.61Z"/><path class="cls-1" d="M10,83.59h6v1.68H12.26v1.25h3.47v1.61H12.26v1.55h3.85v1.78H10Z"/><path class="cls-1" d="M16.51,83.59h4.18a2.16,2.16,0,0,1,1.6.56,2,2,0,0,1,.16,2.6,1.72,1.72,0,0,1-.77.52,1.84,1.84,0,0,1,1.51,2,2.32,2.32,0,0,1-.26,1.1,2.08,2.08,0,0,1-.72.78,2.27,2.27,0,0,1-.84.25,7.61,7.61,0,0,1-1,.11H16.51Zm2.25,3.09h1a1.06,1.06,0,0,0,.73-.2.74.74,0,0,0,.21-.57.66.66,0,0,0-.21-.53,1,1,0,0,0-.71-.2h-1Zm0,3.09H19.9a1.14,1.14,0,0,0,.81-.22A.78.78,0,0,0,21,89a.72.72,0,0,0-.23-.56,1.18,1.18,0,0,0-.82-.22H18.76Z"/><path class="cls-1" d="M26.14,83.59h3.31a3.62,3.62,0,0,1,1.59.29,2.57,2.57,0,0,1,1,.83A3.47,3.47,0,0,1,32.61,86a6.83,6.83,0,0,1,.17,1.53,5.94,5.94,0,0,1-.26,2,3.33,3.33,0,0,1-.73,1.16,2.44,2.44,0,0,1-1,.63,4.87,4.87,0,0,1-1.33.21H26.14Zm2.23,1.78v4.3h.55a2,2,0,0,0,1-.17,1.09,1.09,0,0,0,.46-.59,3.76,3.76,0,0,0,.17-1.36,2.86,2.86,0,0,0-.37-1.72,1.52,1.52,0,0,0-1.25-.46Z"/><path class="cls-1" d="M33.14,83.59h6v1.68H35.38v1.25h3.47v1.61H35.38v1.55h3.85v1.78H33.14Z"/><path class="cls-1" d="M38.92,83.59h2.33l1.63,5.66,1.6-5.66h2.27l-2.68,7.87H41.65Z"/><path class="cls-1" d="M1.26,93.25H2.49a1.55,1.55,0,0,1,.29,0,1.81,1.81,0,0,1,.31.09,1,1,0,0,1,.29.19.89.89,0,0,1,.21.32,1.13,1.13,0,0,1,.08.47,1.21,1.21,0,0,1-.09.5.92.92,0,0,1-.25.32.8.8,0,0,1-.32.19,1.57,1.57,0,0,1-.33.08l1.13,2H3.4l-1.1-2H1.62v2H1.26Zm.36,1.88H2.4a1.19,1.19,0,0,0,.46-.08.86.86,0,0,0,.28-.19.67.67,0,0,0,.13-.25.74.74,0,0,0,0-.48.67.67,0,0,0-.13-.25.86.86,0,0,0-.28-.19,1.19,1.19,0,0,0-.46-.08H1.62Z"/><path class="cls-1" d="M6.07,93.25H8.45v.36h-2v1.52H8.32v.36H6.43v1.65H8.54v.36H6.07Z"/><path class="cls-1" d="M11,96.72a1,1,0,0,0,.37.4,1.06,1.06,0,0,0,.86.07.88.88,0,0,0,.28-.17.68.68,0,0,0,.18-.26.77.77,0,0,0,.07-.34.81.81,0,0,0-.08-.37.76.76,0,0,0-.23-.24,2.39,2.39,0,0,0-.32-.16l-.37-.13a2.39,2.39,0,0,1-.37-.15,1,1,0,0,1-.32-.22.93.93,0,0,1-.23-.34,1.21,1.21,0,0,1-.09-.5,1.12,1.12,0,0,1,.11-.5,1,1,0,0,1,.27-.37,1.2,1.2,0,0,1,.4-.22,1.58,1.58,0,0,1,1.07,0,1.21,1.21,0,0,1,.47.41l-.32.25a1,1,0,0,0-.32-.32.87.87,0,0,0-.44-.1.88.88,0,0,0-.33,0,.74.74,0,0,0-.47.4.75.75,0,0,0-.07.35.74.74,0,0,0,.15.49,1.14,1.14,0,0,0,.37.27c.15.06.31.12.48.17a2.39,2.39,0,0,1,.49.2,1.23,1.23,0,0,1,.37.35,1.13,1.13,0,0,1,.15.63,1.36,1.36,0,0,1-.1.51,1.26,1.26,0,0,1-.27.37,1.09,1.09,0,0,1-.39.23,1.38,1.38,0,0,1-.45.08,1.64,1.64,0,0,1-.71-.15,1.31,1.31,0,0,1-.56-.49Z"/><path class="cls-1" d="M15.22,95.38a2.62,2.62,0,0,1,.15-.9,2.12,2.12,0,0,1,.41-.7,2,2,0,0,1,.64-.47,2,2,0,0,1,.81-.16,1.86,1.86,0,0,1,1.46.63,2.31,2.31,0,0,1,.41.7,2.62,2.62,0,0,1,.15.9,2.56,2.56,0,0,1-.15.89,2.24,2.24,0,0,1-.41.71,1.84,1.84,0,0,1-.64.46,2,2,0,0,1-.82.17,2,2,0,0,1-.81-.17,1.84,1.84,0,0,1-.64-.46,2.07,2.07,0,0,1-.41-.71A2.56,2.56,0,0,1,15.22,95.38Zm.36,0a2.15,2.15,0,0,0,.12.73,1.93,1.93,0,0,0,.33.6,1.58,1.58,0,0,0,.52.4,1.75,1.75,0,0,0,1.37,0,1.58,1.58,0,0,0,.52-.4,1.93,1.93,0,0,0,.33-.6,2.15,2.15,0,0,0,.12-.73,2.21,2.21,0,0,0-.12-.74,1.77,1.77,0,0,0-.33-.59,1.58,1.58,0,0,0-.52-.4,1.75,1.75,0,0,0-1.37,0,1.58,1.58,0,0,0-.52.4,1.77,1.77,0,0,0-.33.59A2.21,2.21,0,0,0,15.58,95.38Z"/><path class="cls-1" d="M24.37,95.88a2.81,2.81,0,0,1-.07.65,1.61,1.61,0,0,1-.24.55,1.28,1.28,0,0,1-.44.39,1.48,1.48,0,0,1-.67.14,1.54,1.54,0,0,1-.67-.14,1.38,1.38,0,0,1-.44-.39,1.61,1.61,0,0,1-.24-.55,3.5,3.5,0,0,1-.07-.65V93.25h.37v2.52a2.77,2.77,0,0,0,0,.49,1.34,1.34,0,0,0,.15.48,1,1,0,0,0,.32.37,1,1,0,0,0,.54.14,1,1,0,0,0,.55-.14,1,1,0,0,0,.32-.37,1.34,1.34,0,0,0,.15-.48,2.77,2.77,0,0,0,0-.49V93.25h.36Z"/><path class="cls-1" d="M26.91,93.25h1.23a1.55,1.55,0,0,1,.29,0,1.81,1.81,0,0,1,.31.09,1.12,1.12,0,0,1,.29.19,1.27,1.27,0,0,1,.21.32,1.32,1.32,0,0,1,.08.47,1.06,1.06,0,0,1-.1.5,1,1,0,0,1-.56.51,1.51,1.51,0,0,1-.34.08l1.14,2h-.41l-1.1-2h-.68v2h-.36Zm.36,1.88H28a1.24,1.24,0,0,0,.47-.08.86.86,0,0,0,.28-.19.67.67,0,0,0,.13-.25.74.74,0,0,0,0-.48.67.67,0,0,0-.13-.25.86.86,0,0,0-.28-.19,1.24,1.24,0,0,0-.47-.08h-.77Z"/><path class="cls-1" d="M34.92,96.84a1.65,1.65,0,0,1-.65.59,1.76,1.76,0,0,1-.79.18,2,2,0,0,1-.82-.17A1.84,1.84,0,0,1,32,97a2.24,2.24,0,0,1-.41-.71,2.56,2.56,0,0,1-.15-.89,2.62,2.62,0,0,1,.15-.9,2.31,2.31,0,0,1,.41-.7,1.86,1.86,0,0,1,1.46-.63,1.85,1.85,0,0,1,.74.15,1.45,1.45,0,0,1,.6.51l-.3.27a1.14,1.14,0,0,0-.46-.44,1.36,1.36,0,0,0-.58-.13,1.52,1.52,0,0,0-.69.14,1.58,1.58,0,0,0-.52.4,1.77,1.77,0,0,0-.33.59,2.21,2.21,0,0,0-.11.74,2.15,2.15,0,0,0,.11.73,1.93,1.93,0,0,0,.33.6,1.58,1.58,0,0,0,.52.4,1.67,1.67,0,0,0,.69.14,1,1,0,0,0,.3,0,2.08,2.08,0,0,0,.32-.12,1.31,1.31,0,0,0,.28-.2,1.21,1.21,0,0,0,.25-.3Z"/><path class="cls-1" d="M37.13,93.25h2.38v.36h-2v1.52h1.9v.36h-1.9v1.65H39.6v.36H37.13Z"/><path class="cls-1" d="M42,96.72a1,1,0,0,0,.37.4,1,1,0,0,0,.52.13.93.93,0,0,0,.34-.06.88.88,0,0,0,.28-.17.83.83,0,0,0,.19-.26.94.94,0,0,0,.07-.34.7.7,0,0,0-.09-.37.59.59,0,0,0-.23-.24,1.91,1.91,0,0,0-.32-.16l-.37-.13a2.87,2.87,0,0,1-.37-.15,1.14,1.14,0,0,1-.32-.22,1.07,1.07,0,0,1-.23-.34,1.41,1.41,0,0,1-.08-.5,1.12,1.12,0,0,1,.1-.5,1,1,0,0,1,.28-.37,1.07,1.07,0,0,1,.39-.22,1.55,1.55,0,0,1,.48-.07,1.45,1.45,0,0,1,.59.12,1.14,1.14,0,0,1,.47.41l-.31.25a1,1,0,0,0-.33-.32.83.83,0,0,0-.43-.1,1,1,0,0,0-.34,0,.74.74,0,0,0-.47.4.91.91,0,0,0-.07.35.74.74,0,0,0,.15.49,1.14,1.14,0,0,0,.37.27,4.65,4.65,0,0,0,.49.17,2.55,2.55,0,0,1,.48.2,1,1,0,0,1,.52,1,1.19,1.19,0,0,1-.1.51,1,1,0,0,1-.27.37,1.14,1.14,0,0,1-.38.23,1.44,1.44,0,0,1-.46.08,1.67,1.67,0,0,1-.71-.15,1.37,1.37,0,0,1-.56-.49Z"/></g></g></svg>