<svg xmlns="http://www.w3.org/2000/svg" viewBox="0 0 27.48 36.77"><defs><style>.cls-1{fill:#fff;}</style></defs><g id="Layer_2" data-name="Layer 2"><g id="Layer_1-2" data-name="Layer 1"><polygon points="27.48 0 0 0 0 30.66 18.04 30.66 27.48 17.35 27.48 0"/><path class="cls-1" d="M19.58,14.29a11.45,11.45,0,0,1-1,4.88,9.72,9.72,0,0,1-2.53,3.37,10.21,10.21,0,0,1-3.56,1.94,13.17,13.17,0,0,1-4,.63H1.16V3.59H8.3a16,16,0,0,1,4.12.54A9.85,9.85,0,0,1,16,5.89a8.9,8.9,0,0,1,2.57,3.29A12,12,0,0,1,19.58,14.29Zm-5,0a7.35,7.35,0,0,0-.54-3,5.09,5.09,0,0,0-1.45-1.92,5.77,5.77,0,0,0-2.06-1A9.49,9.49,0,0,0,8.18,8H5.81V20.61H8.07a9.56,9.56,0,0,0,2.47-.32,5.5,5.5,0,0,0,2.09-1.05,5.08,5.08,0,0,0,1.45-1.94A7.43,7.43,0,0,0,14.62,14.29Z"/><path class="cls-1" d="M1.45,29V26.67h1l.19,0,.18.05.17.1a.76.76,0,0,1,.19.21,1.23,1.23,0,0,1,.12.26,2.29,2.29,0,0,1,.07.28,2.26,2.26,0,0,1,0,.25,1.93,1.93,0,0,1,0,.24,1.44,1.44,0,0,1-.05.24.92.92,0,0,1-.09.23.8.8,0,0,1-.13.19,1.19,1.19,0,0,1-.18.15,1,1,0,0,1-.21.09l-.22,0h-1Zm.22-.19h.54a1.27,1.27,0,0,0,.28,0,.72.72,0,0,0,.27-.09.53.53,0,0,0,.2-.16.94.94,0,0,0,.12-.22,1,1,0,0,0,.06-.25,2.28,2.28,0,0,0,0-.26,2.46,2.46,0,0,0,0-.26,1,1,0,0,0-.06-.25A.94.94,0,0,0,3,27.12.87.87,0,0,0,2.75,27a.61.61,0,0,0-.25-.07l-.29,0H1.67Z"/><path class="cls-1" d="M4.48,29V26.67H6.06v.19H4.71v.86H5.93v.19H4.71v.94H6.09V29Z"/><path class="cls-1" d="M9,28.73H9l.51-2.06h.24L9.14,29H8.9L8.35,27h0L7.79,29H7.54l-.61-2.37h.23l.51,2.06h0l.55-2.06h.25Z"/><path class="cls-1" d="M10.74,29V26.67h1.57v.19H11v.86h1.22v.19H11v.94h1.39V29Z"/><path class="cls-1" d="M14.13,27.81l.72-1.14h.26L14.25,28v1H14V28l-.84-1.36h.26Z"/><path d="M0,31.48H.8l.29,1.66.42-1.66H2.3l.42,1.66L3,31.48h.8l-.6,3H2.38L1.9,32.58l-.47,1.87H.61Z"/><path d="M3.78,31.48H6v.64H4.62v.47H5.93v.6H4.62v.59H6.07v.67H3.78Z"/><path d="M6.22,31.48H7.79a.79.79,0,0,1,.61.22.7.7,0,0,1,.21.52.68.68,0,0,1-.15.45.66.66,0,0,1-.3.2.76.76,0,0,1,.44.27.77.77,0,0,1,.13.47.91.91,0,0,1-.09.41.84.84,0,0,1-.27.29.75.75,0,0,1-.32.1l-.38,0H6.22Zm.85,1.17h.36a.41.41,0,0,0,.28-.08.28.28,0,0,0,.07-.21.26.26,0,0,0-.07-.2.38.38,0,0,0-.27-.08H7.07Zm0,1.16H7.5a.47.47,0,0,0,.3-.08.3.3,0,0,0,.09-.23.26.26,0,0,0-.09-.21.48.48,0,0,0-.31-.08H7.07Z"/><path d="M9.84,31.48h1.25a1.43,1.43,0,0,1,.6.11,1.07,1.07,0,0,1,.38.32,1.35,1.35,0,0,1,.21.47,2.15,2.15,0,0,1,.07.58,2.28,2.28,0,0,1-.1.73,1.23,1.23,0,0,1-.28.44.82.82,0,0,1-.38.24,1.92,1.92,0,0,1-.5.08H9.84Zm.85.68v1.62h.2a.85.85,0,0,0,.38-.07.4.4,0,0,0,.17-.22A1.63,1.63,0,0,0,11.5,33a1,1,0,0,0-.14-.64.55.55,0,0,0-.47-.17Z"/><path d="M12.48,31.48h2.26v.64H13.33v.47h1.3v.6h-1.3v.59h1.45v.67h-2.3Z"/><path d="M14.66,31.48h.88l.61,2.14.6-2.14h.86l-1,3h-.91Z"/><path d="M.48,35.12h.57l.12,0a.23.23,0,0,1,.1.07.25.25,0,0,1,.08.12.55.55,0,0,1,0,.36l-.09.13a.31.31,0,0,1-.13.06L1,36l.43.76H1.28L.87,36H.61v.75H.48Zm.13.71H.9a.48.48,0,0,0,.18,0,.26.26,0,0,0,.1-.07.2.2,0,0,0,.05-.09.44.44,0,0,0,0-.1.51.51,0,0,0,0-.09.2.2,0,0,0-.05-.09.26.26,0,0,0-.1-.07.48.48,0,0,0-.18,0H.61Z"/><path d="M2.28,35.12h.9v.14H2.42v.57h.72V36H2.42v.62h.8v.13H2.28Z"/><path d="M4.13,36.43a.41.41,0,0,0,.14.15.46.46,0,0,0,.2.05l.13,0,.1-.07a.2.2,0,0,0,.07-.09.31.31,0,0,0,0-.13.26.26,0,0,0,0-.14.2.2,0,0,0-.09-.09A.34.34,0,0,0,4.56,36L4.42,36l-.14-.06-.12-.08a.41.41,0,0,1-.08-.13.36.36,0,0,1,0-.19.58.58,0,0,1,0-.19.35.35,0,0,1,.11-.13.38.38,0,0,1,.15-.09.47.47,0,0,1,.17,0,.59.59,0,0,1,.23.05.42.42,0,0,1,.17.16l-.11.09a.37.37,0,0,0-.13-.12.27.27,0,0,0-.16,0l-.13,0a.21.21,0,0,0-.1.06.16.16,0,0,0-.07.09.28.28,0,0,0,0,.13.29.29,0,0,0,.06.19.39.39,0,0,0,.14.1l.18.06.18.08a.44.44,0,0,1,.14.13.43.43,0,0,1,.06.24.58.58,0,0,1,0,.19.71.71,0,0,1-.1.14.38.38,0,0,1-.15.09.47.47,0,0,1-.17,0,.6.6,0,0,1-.27-.06A.54.54,0,0,1,4,36.52Z"/><path d="M5.73,35.92a.88.88,0,0,1,.06-.33,1.17,1.17,0,0,1,.15-.27.81.81,0,0,1,.24-.17.67.67,0,0,1,.31-.07.64.64,0,0,1,.31.07.81.81,0,0,1,.24.17.89.89,0,0,1,.15.27.88.88,0,0,1,.06.33.9.9,0,0,1-.06.34.79.79,0,0,1-.15.27.81.81,0,0,1-.24.17.78.78,0,0,1-.31.07.82.82,0,0,1-.31-.07.81.81,0,0,1-.24-.17,1,1,0,0,1-.15-.27A.9.9,0,0,1,5.73,35.92Zm.14,0a.82.82,0,0,0,0,.28.65.65,0,0,0,.13.23.7.7,0,0,0,.19.15.75.75,0,0,0,.26.05.71.71,0,0,0,.26-.05.75.75,0,0,0,.2-.15.84.84,0,0,0,.12-.23.82.82,0,0,0,0-.28.77.77,0,0,0,0-.27A.84.84,0,0,0,7,35.42a.75.75,0,0,0-.2-.15.71.71,0,0,0-.26-.05.75.75,0,0,0-.26.05.7.7,0,0,0-.19.15.65.65,0,0,0-.13.23A.77.77,0,0,0,5.87,35.92Z"/><path d="M9.18,36.11a1,1,0,0,1,0,.25.4.4,0,0,1-.09.21.44.44,0,0,1-.16.14.51.51,0,0,1-.25.06.53.53,0,0,1-.26-.06.54.54,0,0,1-.16-.14.67.67,0,0,1-.09-.21,1,1,0,0,1,0-.25v-1h.14v1a1.28,1.28,0,0,0,0,.19.64.64,0,0,0,.06.18.53.53,0,0,0,.12.14.41.41,0,0,0,.21.05.39.39,0,0,0,.2-.05A.53.53,0,0,0,9,36.44.64.64,0,0,0,9,36.26a1.28,1.28,0,0,0,0-.19v-1h.14Z"/><path d="M10.14,35.12h.57l.12,0a.23.23,0,0,1,.1.07.25.25,0,0,1,.08.12.55.55,0,0,1,0,.36l-.09.13-.12.06-.13,0,.43.76h-.16L10.53,36h-.26v.75h-.13Zm.13.71h.29a.48.48,0,0,0,.18,0,.26.26,0,0,0,.1-.07.2.2,0,0,0,.05-.09.44.44,0,0,0,0-.1.51.51,0,0,0,0-.09.2.2,0,0,0-.05-.09.26.26,0,0,0-.1-.07.48.48,0,0,0-.18,0h-.29Z"/><path d="M13.15,36.47a.65.65,0,0,1-.24.23.73.73,0,0,1-.3.07.78.78,0,0,1-.31-.07.81.81,0,0,1-.24-.17.79.79,0,0,1-.15-.27.9.9,0,0,1-.06-.34.88.88,0,0,1,.06-.33.89.89,0,0,1,.15-.27.81.81,0,0,1,.24-.17.64.64,0,0,1,.31-.07.67.67,0,0,1,.28.06.56.56,0,0,1,.22.19l-.11.11a.4.4,0,0,0-.17-.17.59.59,0,0,0-.22-.05.71.71,0,0,0-.26.05.58.58,0,0,0-.19.15.65.65,0,0,0-.13.23.77.77,0,0,0,0,.27.82.82,0,0,0,0,.28.65.65,0,0,0,.13.23.58.58,0,0,0,.19.15.71.71,0,0,0,.26.05l.12,0a.25.25,0,0,0,.11,0l.11-.08a.31.31,0,0,0,.09-.11Z"/><path d="M14,35.12h.89v.14h-.76v.57h.72V36h-.72v.62h.8v.13H14Z"/><path d="M15.84,36.43a.32.32,0,0,0,.13.15.46.46,0,0,0,.2.05l.13,0,.1-.07a.2.2,0,0,0,.07-.09.31.31,0,0,0,0-.13.26.26,0,0,0,0-.14.2.2,0,0,0-.09-.09.34.34,0,0,0-.12-.06L16.12,36,16,35.92l-.12-.08a.41.41,0,0,1-.08-.13.36.36,0,0,1,0-.19.58.58,0,0,1,0-.19.35.35,0,0,1,.11-.13.38.38,0,0,1,.15-.09.47.47,0,0,1,.17,0,.59.59,0,0,1,.23.05.37.37,0,0,1,.17.16l-.11.09a.45.45,0,0,0-.12-.12.33.33,0,0,0-.17,0l-.13,0a.21.21,0,0,0-.1.06.22.22,0,0,0-.07.09.28.28,0,0,0,0,.13.29.29,0,0,0,.06.19.39.39,0,0,0,.14.1l.18.06.18.08a.44.44,0,0,1,.14.13.43.43,0,0,1,.06.24.58.58,0,0,1,0,.19.45.45,0,0,1-.1.14.38.38,0,0,1-.15.09.47.47,0,0,1-.17,0,.63.63,0,0,1-.27-.06.54.54,0,0,1-.21-.19Z"/></g></g></svg>