<svg xmlns="http://www.w3.org/2000/svg" xmlns:xlink="http://www.w3.org/1999/xlink" viewBox="0 0 152.42 163.51"><defs><style>.cls-1{fill:url(#linear-gradient);}.cls-2{fill:url(#linear-gradient-2);}.cls-3{fill:url(#linear-gradient-3);}.cls-4{fill:url(#linear-gradient-4);}.cls-5{fill:#fde1a7;}.cls-6{fill:url(#linear-gradient-5);}.cls-7{fill:url(#linear-gradient-6);}.cls-8{fill:url(#linear-gradient-7);}.cls-9{fill:url(#linear-gradient-8);}.cls-10{fill:url(#linear-gradient-9);}.cls-11{fill:url(#linear-gradient-10);}.cls-12{fill:url(#linear-gradient-11);}.cls-13{fill:url(#linear-gradient-12);}.cls-14{fill:url(#linear-gradient-13);}.cls-15{fill:url(#linear-gradient-14);}.cls-16{fill:url(#linear-gradient-15);}.cls-17{fill:url(#linear-gradient-16);}.cls-18{fill:url(#linear-gradient-17);}.cls-19{fill:url(#linear-gradient-18);}.cls-20{fill:#1aa9e8;}.cls-21{fill:url(#linear-gradient-19);}.cls-22{fill:#00e2ec;}.cls-23{fill:#0090b2;}.cls-24{fill:url(#linear-gradient-20);}.cls-25{fill:#f95fc3;}.cls-26{fill:#fff;}.cls-27{fill:url(#linear-gradient-21);}.cls-28{fill:url(#linear-gradient-22);}.cls-29{fill:url(#linear-gradient-23);}.cls-30{fill:url(#linear-gradient-24);}.cls-31{fill:url(#linear-gradient-25);}.cls-32{fill:url(#linear-gradient-26);}.cls-33{fill:url(#linear-gradient-27);}.cls-34{fill:#c7a0f6;}.cls-35{fill:url(#linear-gradient-28);}.cls-36{fill:url(#linear-gradient-29);}.cls-37{fill:url(#linear-gradient-30);}.cls-38{fill:url(#linear-gradient-31);}.cls-39{fill:#05c5da;}.cls-40{fill:url(#linear-gradient-32);}.cls-41{fill:url(#linear-gradient-33);}.cls-42{fill:#fe687e;}.cls-43{fill:url(#linear-gradient-34);}.cls-44{fill:url(#linear-gradient-35);}.cls-45{fill:url(#linear-gradient-36);}.cls-46{fill:url(#linear-gradient-37);}.cls-47{fill:url(#linear-gradient-38);}.cls-48{fill:#cfaeff;}.cls-49{fill:url(#linear-gradient-39);}.cls-50{fill:url(#linear-gradient-40);}.cls-51{fill:url(#linear-gradient-41);}.cls-52{fill:url(#linear-gradient-42);}.cls-53{fill:url(#linear-gradient-43);}.cls-54{fill:url(#linear-gradient-44);}.cls-55{fill:url(#linear-gradient-45);}.cls-56{fill:#9f36ad;}.cls-57{fill:url(#linear-gradient-46);}.cls-58{fill:#954374;}.cls-59{fill:url(#linear-gradient-47);}.cls-60{fill:url(#linear-gradient-48);}.cls-61{fill:url(#linear-gradient-49);}.cls-62{fill:url(#linear-gradient-50);}.cls-63{fill:url(#linear-gradient-51);}.cls-64{fill:url(#linear-gradient-52);}.cls-65{fill:url(#linear-gradient-53);}.cls-66{fill:#cd218f;}.cls-67{fill:url(#linear-gradient-54);}.cls-68{fill:url(#linear-gradient-55);}.cls-69{fill:url(#linear-gradient-56);}.cls-70{fill:url(#linear-gradient-57);}.cls-71{fill:url(#linear-gradient-58);}.cls-72{fill:url(#linear-gradient-59);}.cls-73{fill:url(#linear-gradient-60);}.cls-74{fill:url(#linear-gradient-61);}.cls-75{fill:#f1d2f8;}.cls-76{fill:url(#linear-gradient-62);}.cls-77{fill:url(#linear-gradient-63);}.cls-78{fill:url(#linear-gradient-64);}</style><linearGradient id="linear-gradient" x1="-717.65" y1="407.76" x2="-717.23" y2="407.27" gradientTransform="matrix(247.15, 0, 0, -210.47, 177386.91, 85838.73)" gradientUnits="userSpaceOnUse"><stop offset="0" stop-color="#dbefff"/><stop offset="1" stop-color="#f7ebff"/></linearGradient><linearGradient id="linear-gradient-2" x1="-714.43" y1="396.92" x2="-714.43" y2="397.54" gradientTransform="matrix(79.33, 0, 0, -16.24, 56787.79, 6605)" gradientUnits="userSpaceOnUse"><stop offset="0" stop-color="#f7ebff"/><stop offset="1" stop-color="#dbefff"/></linearGradient><linearGradient id="linear-gradient-3" x1="-713.41" y1="396.15" x2="-713.41" y2="396.77" gradientTransform="matrix(73.85, 0, 0, -14.91, 52722.64, 6071.75)" xlink:href="#linear-gradient-2"/><linearGradient id="linear-gradient-4" x1="-675.71" y1="384.34" x2="-675.12" y2="383.76" gradientTransform="matrix(9, 0, 0, -9, 6143.66, 3551.86)" gradientUnits="userSpaceOnUse"><stop offset="0" stop-color="#ff57bd"/><stop offset="1" stop-color="#fe6a77"/></linearGradient><linearGradient id="linear-gradient-5" x1="-675.71" y1="384.91" x2="-675.12" y2="384.32" gradientTransform="matrix(9, 0, 0, -9, 6143.66, 3565.13)" xlink:href="#linear-gradient-4"/><linearGradient id="linear-gradient-6" x1="-675.71" y1="385.47" x2="-675.12" y2="384.88" gradientTransform="matrix(9, 0, 0, -9, 6143.66, 3578.4)" xlink:href="#linear-gradient-4"/><linearGradient id="linear-gradient-7" x1="-711.61" y1="403.84" x2="-711.03" y2="403.19" gradientTransform="matrix(50.85, 0, 0, -45.31, 36239.65, 18361.06)" gradientUnits="userSpaceOnUse"><stop offset="0" stop-color="#706aed"/><stop offset="1" stop-color="#271068"/></linearGradient><linearGradient id="linear-gradient-8" x1="-698.62" y1="275" x2="-698.01" y2="275" gradientTransform="matrix(19.05, 0, 0, -1.8, 13365.25, 559.8)" gradientUnits="userSpaceOnUse"><stop offset="0" stop-color="#fff"/><stop offset="1" stop-color="#f1d1f8"/></linearGradient><linearGradient id="linear-gradient-9" x1="-652.5" y1="401.67" x2="-652.5" y2="402.29" gradientTransform="matrix(5.76, 0, 0, -34.92, 3838.06, 14113.17)" gradientUnits="userSpaceOnUse"><stop offset="0" stop-color="#fde1a7"/><stop offset="1" stop-color="#f9a144"/></linearGradient><linearGradient id="linear-gradient-10" x1="-652.8" y1="391.37" x2="-652.19" y2="391.37" gradientTransform="matrix(5.76, 0, 0, -13.74, 3838.06, 5446.91)" gradientUnits="userSpaceOnUse"><stop offset="0" stop-color="#00e2ec"/><stop offset="1" stop-color="#0090b2"/></linearGradient><linearGradient id="linear-gradient-11" x1="-651.34" y1="399.85" x2="-651.34" y2="400.47" gradientTransform="matrix(5.76, 0, 0, -27.27, 3820.69, 10990.65)" gradientUnits="userSpaceOnUse"><stop offset="0" stop-color="#1aa9e8"/><stop offset="0.42" stop-color="#3d80ef"/><stop offset="0.79" stop-color="#5662f4"/><stop offset="1" stop-color="#5f57f6"/></linearGradient><linearGradient id="linear-gradient-12" x1="-651.65" y1="394.07" x2="-651.03" y2="394.07" gradientTransform="matrix(5.76, 0, 0, -16.05, 3820.69, 6399.74)" xlink:href="#linear-gradient-10"/><linearGradient id="linear-gradient-13" x1="-651.92" y1="397.96" x2="-651.92" y2="398.58" gradientTransform="matrix(5.76, 0, 0, -22.23, 3829.37, 8933.46)" xlink:href="#linear-gradient-4"/><linearGradient id="linear-gradient-14" x1="-652.23" y1="387.48" x2="-651.61" y2="387.48" gradientTransform="matrix(5.76, 0, 0, -11.01, 3829.37, 4342.56)" xlink:href="#linear-gradient-10"/><linearGradient id="linear-gradient-15" x1="-650.76" y1="401.11" x2="-650.76" y2="401.72" gradientTransform="matrix(5.76, 0, 0, -32.13, 3812, 12974.37)" gradientUnits="userSpaceOnUse"><stop offset="0" stop-color="#c7a0f6"/><stop offset="1" stop-color="#ff57bd"/></linearGradient><linearGradient id="linear-gradient-16" x1="-651.07" y1="388.67" x2="-650.45" y2="388.67" gradientTransform="matrix(5.76, 0, 0, -11.85, 3812, 4676.36)" xlink:href="#linear-gradient-10"/><linearGradient id="linear-gradient-17" x1="-650.18" y1="394.24" x2="-650.18" y2="394.86" gradientTransform="matrix(5.76, 0, 0, -16.29, 3803.32, 6508.92)" xlink:href="#linear-gradient-9"/><linearGradient id="linear-gradient-18" x1="-650.49" y1="385.09" x2="-649.88" y2="385.09" gradientTransform="matrix(5.76, 0, 0, -9.81, 3803.32, 3857.49)" xlink:href="#linear-gradient-10"/><linearGradient id="linear-gradient-19" x1="-711.08" y1="400.43" x2="-710.59" y2="399.6" gradientTransform="matrix(51.03, 0, 0, -30.33, 36301.01, 12161.63)" xlink:href="#linear-gradient-10"/><linearGradient id="linear-gradient-20" x1="-698.24" y1="260.56" x2="-697.63" y2="260.56" gradientTransform="matrix(19.53, 0, 0, -1.8, 13665.09, 491.91)" xlink:href="#linear-gradient-8"/><linearGradient id="linear-gradient-21" x1="-698.21" y1="403.07" x2="-697.59" y2="403.07" gradientTransform="matrix(19.2, 0, 0, -46.23, 13445.27, 18669.19)" xlink:href="#linear-gradient-9"/><linearGradient id="linear-gradient-22" x1="-710.98" y1="395.03" x2="-710.36" y2="395.03" gradientTransform="matrix(47.37, 0, 0, -19.6, 33729.62, 7764.82)" gradientUnits="userSpaceOnUse"><stop offset="0" stop-color="#5a55f8"/><stop offset="1" stop-color="#8c6ae2"/></linearGradient><linearGradient id="linear-gradient-23" x1="-712.95" y1="404.02" x2="-712.34" y2="404.02" gradientTransform="matrix(62.08, 0, 0, -54.74, 44304.16, 22160.08)" xlink:href="#linear-gradient-4"/><linearGradient id="linear-gradient-24" x1="-703.42" y1="391.26" x2="-702.8" y2="391.26" gradientTransform="matrix(24.92, 0, 0, -14.64, 17578.09, 5769.99)" xlink:href="#linear-gradient-15"/><linearGradient id="linear-gradient-25" x1="-692.5" y1="397.48" x2="-691.88" y2="397.48" gradientTransform="matrix(14.64, 0, 0, -23.1, 10198.39, 9217.89)" gradientUnits="userSpaceOnUse"><stop offset="0" stop-color="#994574"/><stop offset="1" stop-color="#43256f"/></linearGradient><linearGradient id="linear-gradient-26" x1="-699.15" y1="395.74" x2="-698.82" y2="395.42" gradientTransform="matrix(19.83, 0, 0, -19.8, 13919.18, 7864.67)" xlink:href="#linear-gradient-11"/><linearGradient id="linear-gradient-27" x1="-714.6" y1="403.68" x2="-714.1" y2="402.88" gradientTransform="matrix(78.51, 0, 0, -49.19, 56194.32, 19861.04)" gradientUnits="userSpaceOnUse"><stop offset="0" stop-color="#c91c91"/><stop offset="1" stop-color="#fe6a77"/></linearGradient><linearGradient id="linear-gradient-28" x1="-704.2" y1="259.23" x2="-703.59" y2="259.23" gradientTransform="matrix(24.64, 0, 0, -1.8, 17438.87, 485.67)" xlink:href="#linear-gradient-8"/><linearGradient id="linear-gradient-29" x1="-713.16" y1="400.32" x2="-713.16" y2="400.93" gradientTransform="matrix(62.28, 0, 0, -32.94, 44527.31, 13223.47)" gradientUnits="userSpaceOnUse"><stop offset="0" stop-color="#994574"/><stop offset="1" stop-color="#9f36ad"/></linearGradient><linearGradient id="linear-gradient-30" x1="-713.82" y1="399.46" x2="-713.2" y2="399.46" gradientTransform="matrix(66.48, 0, 0, -28.68, 47544.94, 11482.95)" gradientUnits="userSpaceOnUse"><stop offset="0" stop-color="#fe6a77"/><stop offset="1" stop-color="#ff57bd"/></linearGradient><linearGradient id="linear-gradient-31" x1="-707.06" y1="381.4" x2="-706.44" y2="381.4" gradientTransform="matrix(31.8, 0, 0, -10.08, 22544.48, 3854.09)" xlink:href="#linear-gradient-9"/><linearGradient id="linear-gradient-32" x1="-706.06" y1="397.87" x2="-705.44" y2="397.87" gradientTransform="matrix(27.93, 0, 0, -21.99, 19810.66, 8819.03)" xlink:href="#linear-gradient-10"/><linearGradient id="linear-gradient-33" x1="-706.76" y1="398.81" x2="-706.36" y2="398.3" gradientTransform="matrix(29.75, 0, 0, -23.42, 21119.64, 9403.66)" xlink:href="#linear-gradient-25"/><linearGradient id="linear-gradient-34" x1="-694.31" y1="405.17" x2="-693.7" y2="405.17" gradientTransform="matrix(14.49, 0, 0, -56.45, 10169.98, 23006.27)" gradientUnits="userSpaceOnUse"><stop offset="0" stop-color="#f4bea3"/><stop offset="1" stop-color="#e8878e"/></linearGradient><linearGradient id="linear-gradient-35" x1="-697.45" y1="380.59" x2="-696.83" y2="380.59" gradientTransform="matrix(16.64, 0, 0, -6.65, 11711.45, 2681.43)" xlink:href="#linear-gradient-7"/><linearGradient id="linear-gradient-36" x1="-693.48" y1="405.09" x2="-692.86" y2="405.09" gradientTransform="matrix(13.72, 0, 0, -55.08, 9635.73, 22445.63)" xlink:href="#linear-gradient-34"/><linearGradient id="linear-gradient-37" x1="-697.99" y1="380.96" x2="-697.38" y2="380.96" gradientTransform="matrix(16.65, 0, 0, -6.73, 11741.09, 2715.59)" xlink:href="#linear-gradient-7"/><linearGradient id="linear-gradient-38" x1="-710.97" y1="404.37" x2="-710.45" y2="403.9" gradientTransform="matrix(43.3, 0, 0, -48.01, 30897.8, 19510)" xlink:href="#linear-gradient-4"/><linearGradient id="linear-gradient-39" x1="-628.72" y1="357.05" x2="-628.11" y2="357.05" gradientTransform="matrix(4.05, 0, 0, -4.61, 2649.1, 1715.23)" gradientUnits="userSpaceOnUse"><stop offset="0" stop-color="#c16846"/><stop offset="0.26" stop-color="#d27565"/><stop offset="0.53" stop-color="#de7f7b"/><stop offset="0.78" stop-color="#e58589"/><stop offset="1" stop-color="#e8878e"/></linearGradient><linearGradient id="linear-gradient-40" x1="-692.85" y1="394.73" x2="-692.23" y2="394.73" gradientTransform="matrix(13.65, 0, 0, -16.7, 9568.57, 6670.22)" xlink:href="#linear-gradient-9"/><linearGradient id="linear-gradient-41" x1="-698.58" y1="389.19" x2="-697.96" y2="389.19" gradientTransform="matrix(17.62, 0, 0, -12.16, 12412.16, 4803.54)" xlink:href="#linear-gradient-34"/><linearGradient id="linear-gradient-42" x1="-704.02" y1="402.67" x2="-703.4" y2="402.67" gradientTransform="matrix(23.41, 0, 0, -38.41, 16595.49, 15546.74)" xlink:href="#linear-gradient-9"/><linearGradient id="linear-gradient-43" x1="-704.41" y1="401.59" x2="-703.84" y2="401.19" gradientTransform="matrix(23.37, 0, 0, -32.85, 16587.91, 13252.52)" xlink:href="#linear-gradient-22"/><linearGradient id="linear-gradient-44" x1="-681.2" y1="390.36" x2="-680.59" y2="390.36" gradientTransform="matrix(9.36, 0, 0, -13.06, 6495.39, 5165.37)" xlink:href="#linear-gradient-34"/><linearGradient id="linear-gradient-45" x1="-697.82" y1="396.52" x2="-697.2" y2="396.52" gradientTransform="matrix(16.65, 0, 0, -20.05, 11732.94, 8009.38)" xlink:href="#linear-gradient-34"/><linearGradient id="linear-gradient-46" x1="-656.69" y1="363.29" x2="-656.08" y2="363.29" gradientTransform="matrix(5.75, 0, 0, -5.38, 3889.05, 2013.13)" gradientUnits="userSpaceOnUse"><stop offset="0" stop-color="#ff57bd"/><stop offset="1" stop-color="#ec9895"/></linearGradient><linearGradient id="linear-gradient-47" x1="-700.12" y1="398.62" x2="-699.51" y2="398.62" gradientTransform="matrix(18.56, 0, 0, -24.39, 13114.17, 9779.31)" xlink:href="#linear-gradient-22"/><linearGradient id="linear-gradient-48" x1="-691.23" y1="394.18" x2="-690.61" y2="394.18" gradientTransform="matrix(13.2, 0, 0, -16.08, 9222.6, 6417.07)" xlink:href="#linear-gradient-34"/><linearGradient id="linear-gradient-49" x1="-710.3" y1="399.23" x2="-709.69" y2="399.23" gradientTransform="matrix(40.25, 0, 0, -24.47, 28690.87, 9848.5)" xlink:href="#linear-gradient-9"/><linearGradient id="linear-gradient-50" x1="-702.67" y1="396.68" x2="-702.16" y2="395.95" gradientTransform="matrix(24.4, 0, 0, -16.83, 17183.68, 6785.8)" xlink:href="#linear-gradient-10"/><linearGradient id="linear-gradient-51" x1="-703.75" y1="397.49" x2="-703.24" y2="396.75" gradientTransform="matrix(26.1, 0, 0, -18, 18406.67, 7265.58)" xlink:href="#linear-gradient-7"/><linearGradient id="linear-gradient-52" x1="-695.93" y1="383.44" x2="-695.53" y2="382.43" gradientTransform="matrix(17.88, 0, 0, -7.14, 12466.85, 2891.21)" xlink:href="#linear-gradient-7"/><linearGradient id="linear-gradient-53" x1="-700.86" y1="406.79" x2="-699.41" y2="406.47" gradientTransform="matrix(21.97, 0, 0, -98.78, 15407.38, 40290.56)" xlink:href="#linear-gradient-25"/><linearGradient id="linear-gradient-54" x1="-696.66" y1="380.28" x2="-696.28" y2="379.2" gradientTransform="matrix(17.98, 0, 0, -6.32, 12568.4, 2557.79)" xlink:href="#linear-gradient-7"/><linearGradient id="linear-gradient-55" x1="-704.56" y1="406.86" x2="-703.16" y2="406.48" gradientTransform="matrix(27.25, 0, 0, -100.59, 19214.15, 41031.86)" xlink:href="#linear-gradient-25"/><linearGradient id="linear-gradient-56" x1="-703.24" y1="402.59" x2="-702.62" y2="402.59" gradientTransform="matrix(25.63, 0, 0, -41.25, 18050.09, 16655.75)" xlink:href="#linear-gradient-34"/><linearGradient id="linear-gradient-57" x1="-706.4" y1="405.31" x2="-705.56" y2="404.9" gradientTransform="matrix(31.66, 0, 0, -65.69, 22378.94, 26694.13)" xlink:href="#linear-gradient-11"/><linearGradient id="linear-gradient-58" x1="-629.34" y1="368.22" x2="-628.72" y2="368.22" gradientTransform="matrix(4.55, 0, 0, -6.04, 2899.9, 2283.25)" gradientUnits="userSpaceOnUse"><stop offset="0" stop-color="#ec9895"/><stop offset="1" stop-color="#ff57bd"/></linearGradient><linearGradient id="linear-gradient-59" x1="-697.39" y1="401.12" x2="-696.84" y2="400.79" gradientTransform="matrix(18.81, 0, 0, -31.36, 13142.98, 12637.55)" xlink:href="#linear-gradient-34"/><linearGradient id="linear-gradient-60" x1="-696.53" y1="398.4" x2="-695.91" y2="398.4" gradientTransform="matrix(18.16, 0, 0, -23.85, 12671.72, 9558.67)" gradientUnits="userSpaceOnUse"><stop offset="0" stop-color="#cb2090"/><stop offset="1" stop-color="#43256f"/></linearGradient><linearGradient id="linear-gradient-61" x1="-678" y1="384.05" x2="-677.51" y2="383.55" gradientTransform="matrix(9.94, 0, 0, -9.66, 6771.83, 3772.45)" xlink:href="#linear-gradient-60"/><linearGradient id="linear-gradient-62" x1="-684.38" y1="368.78" x2="-683.76" y2="368.78" gradientTransform="matrix(11.85, 0, 0, -5.93, 8134, 2257.74)" xlink:href="#linear-gradient-11"/><linearGradient id="linear-gradient-63" x1="-697.04" y1="404.19" x2="-696.42" y2="404.19" gradientTransform="matrix(18.28, 0, 0, -48.72, 12778.25, 19792.79)" xlink:href="#linear-gradient-34"/><linearGradient id="linear-gradient-64" x1="-690.86" y1="395.45" x2="-690.24" y2="395.45" gradientTransform="matrix(14.37, 0, 0, -17.41, 9963.24, 6966.08)" xlink:href="#linear-gradient-11"/></defs><g id="Layer_2" data-name="Layer 2"><g id="Layer_1-2" data-name="Layer 1"><g id="Data"><g id="background"><path id="Path" class="cls-1" d="M95.51,0c13.54.23,32.75,5.78,38,19.55,5.6,14.8,4.94,18,14.09,34.09s4.26,38.76-5.51,48.38c-13.84,13.64-25.87,10.25-50.44,10.15-17.2-.08-36.43,12.41-46.18,15.66C38.89,130,24.91,132.41,16,123.3c-9.81-10-7.63-28.65-9.33-35.76C4.92,80.1-6.89,53.77,5.81,33.24,21.13,8.47,55.32-.63,95.51,0Z"/><path id="Path-2" class="cls-2" d="M115.81,149.71c4.89-.89,23-4.51,23.81,2.84.68,6.18-14,5.66-21,5.33-8.94-.43-27.17,1.52-27.86-2.19-.41-2.22,5-3.4,10.64-3.73C106,151.68,108.65,151,115.81,149.71Z"/><path id="Path-3" class="cls-3" d="M33.82,155.3c-4.47-.51-23.38-3.42-22.46,3.91.74,5.85,14.7,3.56,21,4.07,8.94.72,24.2-.23,24.49-4,.18-2.25-4.81-3-9.88-2.9C42.81,156.5,40.37,156,33.82,155.3Z"/></g><g id="graph_5"><g id="Group"><path id="Path-4" class="cls-4" d="M62.16,93.05a.42.42,0,0,1,.42-.42h4.71a.42.42,0,0,1,.42.42v4.71a.42.42,0,0,1-.42.42H62.58a.42.42,0,0,1-.42-.42Z"/><path id="Path-5" class="cls-5" d="M64.74,97a.2.2,0,0,1-.17-.09l-1.36-1.77a.22.22,0,0,1,0-.31.22.22,0,0,1,.32,0h0l1.16,1.52,1.58-2.53a.23.23,0,0,1,.31-.07.23.23,0,0,1,.07.31l-1.75,2.8a.22.22,0,0,1-.18.1Z"/></g><g id="Group-2"><path id="Path-6" class="cls-6" d="M62.16,101.24a.42.42,0,0,1,.42-.42h4.71a.42.42,0,0,1,.42.42V106a.42.42,0,0,1-.42.42H62.58a.42.42,0,0,1-.42-.42Z"/><path id="Path-7" class="cls-5" d="M64.74,105.22a.2.2,0,0,1-.17-.09l-1.36-1.78a.22.22,0,0,1,0-.31.23.23,0,0,1,.32,0h0l1.16,1.53,1.58-2.53a.22.22,0,0,1,.31-.07.22.22,0,0,1,.07.3l-1.75,2.81a.22.22,0,0,1-.18.1Z"/></g><g id="Group-3"><path id="Path-8" class="cls-7" d="M62.16,109.42a.42.42,0,0,1,.42-.42h4.71a.42.42,0,0,1,.42.42v4.72a.42.42,0,0,1-.42.42H62.58a.42.42,0,0,1-.42-.42Z"/><path id="Path-9" class="cls-5" d="M64.74,113.4a.19.19,0,0,1-.17-.08l-1.36-1.78a.22.22,0,0,1,0-.31.23.23,0,0,1,.32,0h0l1.16,1.52,1.58-2.53a.22.22,0,1,1,.38.24l-1.75,2.8a.27.27,0,0,1-.18.11Z"/></g></g><g id="graph_4"><rect id="Rectangle" class="cls-8" x="53.28" y="61.86" width="31.36" height="27.96"/><rect id="Rectangle-2" class="cls-9" x="56.48" y="64.24" width="11.75" height="1.11"/><g id="Group-4"><g id="Group-5"><path id="Path-10" class="cls-10" d="M81.45,65.67a.45.45,0,0,0-.44-.45H78.35a.45.45,0,0,0-.45.45h0v21.1h3.55Z"/><path id="Path-11" class="cls-11" d="M81.45,73.7v-8a.45.45,0,0,0-.44-.45H78.35a.45.45,0,0,0-.45.45h0v8Z"/></g><g id="Group-6"><path id="Path-12" class="cls-12" d="M70.74,70.39a.45.45,0,0,0-.44-.45H67.63a.45.45,0,0,0-.44.45h0V86.77h3.55Z"/><path id="Path-13" class="cls-13" d="M70.74,79.84V70.39a.45.45,0,0,0-.44-.45H67.63a.45.45,0,0,0-.44.45h0v9.45Z"/></g><g id="Group-7"><path id="Path-14" class="cls-14" d="M76.1,73.49a.45.45,0,0,0-.45-.44H73a.44.44,0,0,0-.44.44h0V86.77H76.1Z"/><path id="Path-15" class="cls-15" d="M76.1,79.84V73.49a.45.45,0,0,0-.45-.44H73a.44.44,0,0,0-.44.44h0v6.35Z"/></g><g id="Group-8"><path id="Path-16" class="cls-16" d="M65.38,67.39a.44.44,0,0,0-.44-.45H62.28a.45.45,0,0,0-.45.45h0V86.77h3.55Z"/><path id="Path-17" class="cls-17" d="M65.38,74.25V67.39a.44.44,0,0,0-.44-.45H62.28a.45.45,0,0,0-.45.45h0v6.86Z"/></g><g id="Group-9"><path id="Path-18" class="cls-18" d="M60,77.16a.44.44,0,0,0-.45-.44H56.92a.44.44,0,0,0-.44.44h0v9.61H60Z"/><path id="Path-19" class="cls-19" d="M60,82.77V77.16a.44.44,0,0,0-.45-.44H56.92a.44.44,0,0,0-.44.44h0v5.61Z"/></g><path id="Path-20" class="cls-20" d="M81.45,87H56.53a.22.22,0,0,1-.22-.22.22.22,0,0,1,.22-.23H81.45a.23.23,0,1,1,0,.45Z"/></g></g><g id="graph_1"><g id="Group-10"><rect id="Rectangle-3" class="cls-21" x="11.25" y="19.91" width="31.47" height="18.71"/><path id="Path-21" class="cls-22" d="M15.54,35.85h9.18V24.17Z"/><path id="Path-22" class="cls-22" d="M33.23,33v2.83h5.66V26.28Z"/><path id="Path-23" class="cls-23" d="M24.72,24.17V35.85h8.51V33Z"/><path id="Path-24" class="cls-23" d="M41.63,29.93l-2.74-3.65v9.57h2.74Z"/><rect id="Rectangle-4" class="cls-24" x="28.4" y="22.35" width="12.04" height="1.11"/><path id="Path-25" class="cls-20" d="M21.44,32.87a.23.23,0,0,1-.19-.1L16,24.31a.21.21,0,0,1,.07-.3.23.23,0,0,1,.31.07l5.25,8.45a.24.24,0,0,1-.07.31l-.12,0Z"/><circle id="Oval" class="cls-25" cx="16.19" cy="24.2" r="1.19"/><circle id="Oval-2" class="cls-26" cx="21.44" cy="32.65" r="0.76"/></g></g><g id="diagram"><g id="Group-11"><path id="Path-26" class="cls-26" d="M46.67,42.76a14.59,14.59,0,0,1,6-17.92l-3.2-6.28a21.62,21.62,0,0,0-9.2,27.26Z"/><path id="Path-27" class="cls-26" d="M54.49,23.93a14.57,14.57,0,0,1,18.38,6.2l6.35-3.06A21.61,21.61,0,0,0,51.3,17.65Z"/><path id="Path-28" class="cls-26" d="M80.09,28.87l-6.35,3.06a14.58,14.58,0,0,1-26.2,12.63l-6.35,3.06a21.61,21.61,0,0,0,38.9-18.75Z"/></g><g id="Group-12"><path id="Path-29" class="cls-27" d="M48,45.27a14.59,14.59,0,0,1,2.47-18.75L46.09,21A21.64,21.64,0,0,0,42.33,49.5Z"/><path id="Path-30" class="cls-28" d="M52,25.29a14.56,14.56,0,0,1,19.23,2.53l5.64-4.23a21.62,21.62,0,0,0-29.22-3.85Z"/><path id="Path-31" class="cls-29" d="M78.08,25.19l-5.64,4.23A14.58,14.58,0,0,1,49.17,46.87L43.53,51.1A21.62,21.62,0,0,0,78.08,25.19Z"/></g><path id="Path-32" class="cls-30" d="M51.76,40.53a9,9,0,0,0,15.36,2.62l-6.91-5.8Z"/><path id="Path-33" class="cls-31" d="M63.41,28.9l-3.2,8.45,6.91,5.8A9,9,0,0,0,63.41,28.9Z"/><path id="Path-34" class="cls-32" d="M63.41,28.9A9,9,0,0,0,51.76,40.53l8.45-3.18Z"/></g><g id="graph_3"><rect id="Rectangle-5" class="cls-33" x="86.43" y="10.33" width="48.42" height="30.35"/><g id="Group-13"><g id="Group-14"><circle id="Oval-3" class="cls-5" cx="91.33" cy="15.31" r="1.19"/><circle id="Oval-4" class="cls-22" cx="97.74" cy="15.31" r="1.19"/><circle id="Oval-5" class="cls-34" cx="104.14" cy="15.31" r="1.19"/></g><rect id="Rectangle-6" class="cls-35" x="90.14" y="18.5" width="15.19" height="1.11"/></g><path id="Path-35" class="cls-36" d="M131.14,17.82c-.73-1.44-1.84-2.77-3.4-2.72-3.41.11-5.63,9-8,9.1s-1.55-8.95-4.58-8.88c-3.82.09-4,17.66-8.74,18.07s-5.84-9.44-8-9.3S95.36,31.82,95,33.46a2.88,2.88,0,0,1-2.26,2h38.41Z"/><path id="Path-36" class="cls-37" d="M131.14,17.73h0c-5.25.22-6.36,14.36-11.77,14-4.48-.28-3.73-7.89-7.66-8.11s-5.77,9-10.51,9.29c-2.3.15-4.14-1.29-6.25-1.11s-4.29,3-4.81,3.59h41Z"/></g><g id="graph_2"><rect id="Rectangle-7" class="cls-38" x="60.06" y="6.46" width="19.61" height="6.22"/><path id="Path-37" class="cls-39" d="M77.87,10.65a1.87,1.87,0,0,1-1.51-1c-.32-.42-.6-.77-1.16-.77s-.83.36-1.16.77a1.85,1.85,0,0,1-1.51,1A1.87,1.87,0,0,1,71,9.7c-.32-.42-.6-.77-1.16-.77s-.83.36-1.15.77a1.68,1.68,0,0,1-3,0c-.33-.42-.6-.77-1.16-.77s-.84.35-1.16.77a1.87,1.87,0,0,1-1.51,1,.22.22,0,0,1-.22-.22.22.22,0,0,1,.22-.23c.56,0,.84-.36,1.16-.77a1.68,1.68,0,0,1,3,0c.32.41.6.77,1.16.77s.83-.36,1.16-.77a1.67,1.67,0,0,1,3,0c.33.41.61.77,1.16.77s.84-.36,1.16-.77a1.68,1.68,0,0,1,3,0c.33.41.6.77,1.16.77a.23.23,0,1,1,0,.45Z"/><path id="Path-38" class="cls-20" d="M62.82,19.54a.23.23,0,0,1-.23-.23.26.26,0,0,1,.07-.16l6.89-6.64a.22.22,0,0,1,.3.32L63,19.47A.23.23,0,0,1,62.82,19.54Z"/><circle id="Oval-6" class="cls-5" cx="62.82" cy="19.32" r="0.88"/></g><g id="girl_tablet"><path id="Path-39" class="cls-40" d="M98.5,76.1a.64.64,0,0,0,.86.23l10.19-4.61a.62.62,0,0,0,.23-.85h0l-4.63-7.71a.62.62,0,0,0-.86-.22h0L93,66.07a.62.62,0,0,0-.22.86Z"/><path id="Shape" class="cls-41" d="M98.33,76.57,92.17,66.8a.67.67,0,0,1,.24-.91l12.08-3.35a.67.67,0,0,1,.91.24h0L110.34,71a.68.68,0,0,1-.24.92h0l-10.86,4.9a.67.67,0,0,1-.92-.24h0Z"/><path id="Path-40" class="cls-5" d="M106.38,68.41l-8.06,3.18-.65-.93,8.17-3.06Z"/><circle id="Oval-7" class="cls-25" cx="100.88" cy="67.62" r="0.9"/><circle id="Oval-8" class="cls-42" cx="97.83" cy="68.8" r="0.9"/><circle id="Oval-9" class="cls-22" cx="103.74" cy="66.58" r="0.81"/></g><g id="girl_right_leg" data-name="girl_right leg"><path id="Path-41" class="cls-43" d="M117.23,128.89c-.26-4.43.74-9.87.7-11.58l-7.25-.41s-.14,5.19-.07,9.68c.07,5.07,1.13,19.62.81,21.89a4.52,4.52,0,0,1-2.42,3,2.92,2.92,0,0,0,2.73-.2A12.91,12.91,0,0,1,116,149.7c-.05-.77-.1-1.48-.1-2C115.9,145.42,117.55,134.24,117.23,128.89Z"/><path id="Path-42" class="cls-44" d="M111.73,151.28a3,3,0,0,1-2.73.21l-.81.48c-1,.56-2.46.78-2.3,1.37s3.71.68,5.63.13a16.93,16.93,0,0,0,2.46-1.1l.07,1.14s1.72.13,1.9-.08.19-2.13.09-3.74A13.18,13.18,0,0,0,111.73,151.28Z"/></g><g id="girl_left_leg" data-name="girl_left leg"><path id="Path-43" class="cls-45" d="M125.87,151.44c1.54-.77,3.29-1.62,4.47-1.59-.05-.77-.11-1.48-.14-2-.09-1.48-.13-4,.06-9.4s-.78-9.14-1.11-12.33-.34-6.55-.37-8.25l-6.91.85s.54,5.08,1,9.55c.45,4.22,3.13,17.75,2.82,20-.2,1.4-1.58,2.54-2.61,3.28A2.92,2.92,0,0,0,125.87,151.44Z"/><path id="Path-44" class="cls-46" d="M120.15,153.73c0,.32,3.6.44,5.52-.11a16.88,16.88,0,0,0,2.46-1.09l.06,1.13a7.33,7.33,0,0,0,2-.13c.28-.31.22-2.1.12-3.68-1.18,0-2.93.82-4.47,1.59a2.92,2.92,0,0,1-2.79.17l-.74.51C121.43,152.75,120.15,153.12,120.15,153.73Z"/></g><g id="girl_skirt"><path id="Path-45" class="cls-47" d="M126.59,91.36a28.35,28.35,0,0,1,3.67,8.9c.71,3.64.66,5.72,1.05,8.55s2.39,9,2.28,9.44-1,1-2.74,1a12,12,0,0,0-4.59.7,18.88,18.88,0,0,1-8.14.89c-3.18-.33-5.7-1.67-7.29-1.7s-3.7,0-3.92-.48,1.22-3.88,1.53-6A59.24,59.24,0,0,1,111.28,101c1.59-4.3,3.84-9.25,3.84-9.25s3.31,0,5.7-.08S126.59,91.36,126.59,91.36Z"/><path id="Path-46" class="cls-48" d="M120.25,119.53a19.23,19.23,0,0,1-2.15-.12,23.39,23.39,0,0,1-4.61-1.07,11.66,11.66,0,0,0-2.67-.63h-.43a13.78,13.78,0,0,1-3.27-.29.23.23,0,0,1-.14-.29.23.23,0,0,1,.29-.13,14.25,14.25,0,0,0,3.12.26h.44a11.56,11.56,0,0,1,2.79.65,22.65,22.65,0,0,0,4.52,1,18.48,18.48,0,0,0,8-.87,11.4,11.4,0,0,1,4.13-.71h.52a3.76,3.76,0,0,0,2.37-.64.2.2,0,0,1,.31,0,.22.22,0,0,1,0,.31,4.18,4.18,0,0,1-2.65.76h-.52a11.11,11.11,0,0,0-4,.68A18.78,18.78,0,0,1,120.25,119.53Z"/><path id="Path-47" class="cls-48" d="M121,118.05a25.94,25.94,0,0,1-2.79-.15,25.29,25.29,0,0,1-4.92-1.15,16.44,16.44,0,0,0-2.66-.67,7.77,7.77,0,0,0-1.6,0,3.54,3.54,0,0,1-1.45-.06.21.21,0,0,1-.13-.28.22.22,0,0,1,.28-.14,3,3,0,0,0,1.26,0,9.43,9.43,0,0,1,1.68,0,14.77,14.77,0,0,1,2.75.69,25,25,0,0,0,4.84,1.12,19.1,19.1,0,0,0,8.06-.63,8.06,8.06,0,0,1,3.44-.64h.46a3.68,3.68,0,0,0,2.67-.73.22.22,0,0,1,.31,0,.23.23,0,0,1,0,.32,4.06,4.06,0,0,1-2.88.84h-.56a7.65,7.65,0,0,0-3.28.61A17.17,17.17,0,0,1,121,118.05Z"/></g><g id="girl_right_hand" data-name="girl_right hand"><path id="Path-48" class="cls-49" d="M105.74,67.75c-.34.11-.91.41-.79,1a3.79,3.79,0,0,0,1.44,1.68c.33.15.11-.74-.19-1.12s.53.49.8.4.26-.43,0-1,.65-1,.28-1.07A4.09,4.09,0,0,0,105.74,67.75Z"/><path id="Path-49" class="cls-50" d="M111,74.17c.09-.12,2.79-2,3-2.07s4.66,5.61,5.27,6.25-.81,3.83-2,4.05S110.69,74.51,111,74.17Z"/><path id="Path-50" class="cls-51" d="M103.23,67.5c.39-.39,2.34-.17,2.61-.09s.9-.47,1.29-.49a5.68,5.68,0,0,1,2.28.6,58.64,58.64,0,0,1,4.64,4.7A2.44,2.44,0,0,1,113,74c-1,.67-1.59.37-1.59.37a16.8,16.8,0,0,0-1.85-2.81c-.47-.31-1.64.21-2.6,0s-2.16-1.38-1.81-1.69,1.25.42,1.65.56c.58.19,1.68,0,1.71-.49s-1.73-1-3.06-1.44C104.54,68.17,102.91,67.82,103.23,67.5Z"/><path id="Path-51" class="cls-20" d="M111.76,74.65a1.51,1.51,0,0,1-1-.31.22.22,0,0,1,0-.31.22.22,0,0,1,.32,0s.67.55,1.8-.19a2.21,2.21,0,0,0,.93-1.6.22.22,0,0,1,.44,0,2.57,2.57,0,0,1-1.13,2A2.52,2.52,0,0,1,111.76,74.65Z"/></g><g id="girl_body"><path id="Path-52" class="cls-52" d="M125.11,69.11c.59,1.22,2.81,5.48,2.67,8.77s-1,6.7-1.15,9.26,0,4.22,0,4.22a11.81,11.81,0,0,1-6.14,1.4,13,13,0,0,1-5.33-1,60.36,60.36,0,0,0-.55-6.59c-.35-2.09-1.22-3.32-1.22-5.67,0-3,4.61-6.89,6-9C120.47,68.75,125.11,69.11,125.11,69.11Z"/><path id="Path-53" class="cls-20" d="M120.84,93h-.4A13,13,0,0,1,115,91.92a.22.22,0,0,1-.09-.3.24.24,0,0,1,.3-.09,12.92,12.92,0,0,0,5.23,1,11.69,11.69,0,0,0,6-1.37.21.21,0,0,1,.3.07.21.21,0,0,1-.07.3h0A11.8,11.8,0,0,1,120.84,93Z"/></g><g id="girl_hairs"><path id="Path-54" class="cls-53" d="M128.65,56.92a26.38,26.38,0,0,0,3.52-.69c2.51-.56,5-.53,5.61,1.22.54,1.5-.37,2.74-.22,3.79.21,1.43,4.46,2.63,4.55,5.48s-2.17,3.72-2.78,4.92-1.83,4.81-6.05,4.52c-2.41-.17-3.08-1.59-3.08-2.58,0-1.27,1.22-2.25.64-3.17s-2.45-.3-2.86-1.38.56-2.14,1.3-2.73,1.86-1.19,1.61-2-1.77-1.08-1.72-1.94c.07-1,1.92-1.76,1.61-2.78-.23-.77-1.55-.61-2.69-.83S128.65,56.92,128.65,56.92Z"/></g><g id="girl_head"><path id="Path-55" class="cls-54" d="M124.56,64.07a28.66,28.66,0,0,0,.55,5A6.92,6.92,0,0,1,120.82,71c-1.25.06-1.48-.55-1.48-.55l.52-5.15a4.88,4.88,0,0,1,2.37-2.07c1.58-.61,2.18,0,2.18,0Z"/><path id="Path-56" class="cls-55" d="M123.86,54.75a10.34,10.34,0,0,0-3.94-.93c-1.76,1-6.44,9.72-3.5,11.85,1.81,1.31,4.92,0,7-1.82a1.39,1.39,0,0,0,.4.06,1.28,1.28,0,0,0,1.31-1.26,1.18,1.18,0,0,0-.14-.55,3.78,3.78,0,0,0,.43-.88C125.92,59.59,126.11,55.71,123.86,54.75Z"/><path id="Path-57" class="cls-23" d="M120.35,60h-.1a.33.33,0,0,1-.22-.42h0a3.89,3.89,0,0,1,.71-1.15.33.33,0,1,1,.46.48h0a3.22,3.22,0,0,0-.53.87A.34.34,0,0,1,120.35,60Z"/><path id="Path-58" class="cls-23" d="M117.2,58.29l-.08,0a.28.28,0,0,1-.19-.35,3.12,3.12,0,0,1,.63-1,.28.28,0,0,1,.4,0,.28.28,0,0,1,0,.38,2.45,2.45,0,0,0-.49.78A.28.28,0,0,1,117.2,58.29Z"/><path id="Shape-2" class="cls-56" d="M119.72,61.2A1.52,1.52,0,0,1,119,60a2.68,2.68,0,0,1,.31-1.62,2.35,2.35,0,0,1,1.92-1.34,1.44,1.44,0,0,1,.64.16,2,2,0,0,1,.44,2.79,2.32,2.32,0,0,1-1.91,1.34A1.45,1.45,0,0,1,119.72,61.2Z"/><path id="Shape-3" class="cls-56" d="M116.19,59.15c-.67-.36-.77-1.42-.23-2.43a2.19,2.19,0,0,1,1.69-1.28,1,1,0,0,1,.46.11,1.17,1.17,0,0,1,.56,1,2.59,2.59,0,0,1-.34,1.41,2.16,2.16,0,0,1-1.69,1.28A1,1,0,0,1,116.19,59.15Z"/><path id="Path-59" class="cls-57" d="M118.66,57.6c-.88.72-3.31,1.92-3.37,2.35s1.21.88,1.51.88.51-.8,1.3-1.9C118.55,58.31,119.12,57.21,118.66,57.6Z"/><path id="Path-60" class="cls-56" d="M119.54,58.47a.17.17,0,0,1-.16-.11c-.22-.57-.52-.74-1-.58a.19.19,0,0,1-.21-.11.18.18,0,0,1,.11-.21c.67-.21,1.13,0,1.42.78a.16.16,0,0,1-.09.22Z"/><path id="Path-61" class="cls-58" d="M115.69,62.09a.85.85,0,0,0,.21.37.86.86,0,0,0,.34.26.92.92,0,0,0,.81,0,.16.16,0,0,1,.22.07.17.17,0,0,1-.07.23h0a1.53,1.53,0,0,1-.53.13,1.11,1.11,0,0,1-1-.48,1.23,1.23,0,0,1-.23-.49.11.11,0,0,1,.09-.13.1.1,0,0,1,.13.09Z"/><path id="Path-62" class="cls-20" d="M120.66,71.26c-1.25,0-1.52-.68-1.53-.71a.22.22,0,0,1,.13-.28.23.23,0,0,1,.29.13s.21.46,1.26.41A6.78,6.78,0,0,0,125,69a.23.23,0,1,1,.33.31h0a7.14,7.14,0,0,1-4.44,2Z"/><path id="Path-63" class="cls-59" d="M123.46,61.44c-.24.05-.57,0-.55-.53,0-.91,1.6-2.3,1.56-3.58,0-1.56-3-1.91-5-2.7a3,3,0,0,1-1.68-4l.08-.18a1.34,1.34,0,0,1,1.88-.35,1.24,1.24,0,0,1,.22.18c.44.45.65.94,1,.93s.29-.89,1-.89,1.28,1.27,1.75,1.8c.81.89,5.06,2.29,5.28,5.34.29,4.19-3.87,7.45-4.33,7.45a.62.62,0,0,1-.64-.6.64.64,0,0,1,.23-.5,1.26,1.26,0,1,0-.82-2.39Z"/><path id="Path-64" class="cls-56" d="M124.28,61.47a1.3,1.3,0,0,1,.78.81.17.17,0,0,0,0-.14c-.27-1-1.66-1.8-2.41-2.26l-.37-.23a.16.16,0,0,0-.23.05.16.16,0,0,0,0,.22l.39.25A9.07,9.07,0,0,1,124.28,61.47Z"/></g><g id="girl_left_hand" data-name="girl_left hand"><path id="Path-65" class="cls-60" d="M98.09,72c.45-.09,1,1.38,1.18,2.21a7.34,7.34,0,0,0,1.2,3.18,9.66,9.66,0,0,0,3.13,1.63,3.14,3.14,0,0,1-.37,2.16,2,2,0,0,1-1.56.74,50,50,0,0,0-3.89-3.52,5,5,0,0,1-2-2.63,5.35,5.35,0,0,1-.23-2.14,7.21,7.21,0,0,1,.24-1.14s1.7,2.7,2.15,3.4c.46-.09.24-1.37.18-1.89S97.63,72.12,98.09,72Z"/><path id="Path-66" class="cls-61" d="M122.15,72.72a3.11,3.11,0,0,1,3.69,1.86,3.84,3.84,0,0,1-.51,4.26c-1,1-7.7,9-11.22,8.87-3.92-.11-12.59-5.07-12.68-5.57a8.11,8.11,0,0,1,1.76-3.24c.23.09,9.19,3.48,10.53,3.12S120.8,73,122.15,72.72Z"/><path id="Path-67" class="cls-20" d="M101.43,82.36a.23.23,0,0,1-.22-.18c-.1-.59,1.34-3.06,1.75-3.41a.28.28,0,0,1,.3-.07.22.22,0,0,1,.14.28.22.22,0,0,1-.17.14,9.76,9.76,0,0,0-1.58,3,.22.22,0,0,1-.19.25Z"/></g><g id="guy_tablet"><path id="Path-68" class="cls-62" d="M37.92,122a.62.62,0,0,0,.62.62h13.8A.62.62,0,0,0,53,122v-9.14a.62.62,0,0,0-.62-.62H38.54a.62.62,0,0,0-.62.62Z"/><path id="Shape-4" class="cls-63" d="M38.06,123a.67.67,0,0,1-.67-.66v-9.78a.67.67,0,0,1,.67-.66H52.82a.67.67,0,0,1,.67.66v9.78a.67.67,0,0,1-.67.66Z"/><rect id="Rectangle-8" class="cls-5" x="38.05" y="118.1" width="11.75" height="1.11"/><path id="Path-69" class="cls-22" d="M48.27,115.48l1.53,1.78h-3Z"/><circle id="Oval-10" class="cls-25" cx="44.22" cy="116.37" r="0.9"/></g><g id="guy_left_leg" data-name="guy_left leg"><path id="Path-70" class="cls-64" d="M24.92,155.32c.41,1,2.16,1.45,3.63,1.8s2.71.59,2.65,1.22-3.52,1-6,.89a13.61,13.61,0,0,1-4.68-.65c-.39-.29-.38-2.94-.28-3.53S24.92,155.32,24.92,155.32Z"/><path id="Path-71" class="cls-65" d="M22.32,95.13a39.63,39.63,0,0,0-1.48,9.37c-.3,5.33.07,21.69.07,25.69s-1,11.1-1,15.92-.17,9.33.11,9.51c.62.39,4.17.67,5.36,0,.21-.12,2.15-16.92,3.48-24,.88-4.64,4.29-29.84,4.51-33.54S22.32,95.13,22.32,95.13Z"/><path id="Path-72" class="cls-66" d="M23.09,154.5a8.87,8.87,0,0,1-3.38-.57.22.22,0,1,1,.17-.41h0a10.13,10.13,0,0,0,5.67.25.23.23,0,0,1,.1.44A13.25,13.25,0,0,1,23.09,154.5Z"/></g><g id="guy_right_leg" data-name="guy_right leg"><path id="Path-73" class="cls-67" d="M43,156.6c.35.63,1.92,1.41,3.38,1.76s2.72.59,2.65,1.22-3.51,1-6,.89-4.18-.17-4.55-.45-.6-2.38-.51-3S43,156.6,43,156.6Z"/><path id="Path-74" class="cls-68" d="M40,97.76c.17,2.22,1.66,29.15,2,33.59s1.79,25,1.61,25.34c-.31.65-5,1.37-5.75.73-.46-.41-2-10.8-3.13-17.61s-3.78-18.88-5.11-23.62S25.8,103.7,27.18,96.82c1.28-1.45,4.11-1.42,7.22-.84A23,23,0,0,1,40,97.76Z"/><path id="Path-75" class="cls-66" d="M30.59,120.68c-.26-1.05-.52-2.09-.8-3.13s-.59-2.07-.89-3.1c-.6-2.07-1.17-4.15-1.61-6.27a.23.23,0,0,1,.18-.26.22.22,0,0,1,.26.17h0c.39,2.11.92,4.19,1.49,6.27.28,1,.58,2.07.84,3.12s.5,2.1.74,3.15a.1.1,0,0,1-.08.12.11.11,0,0,1-.13-.07Z"/><path id="Path-76" class="cls-66" d="M27.51,108.35l-.09,0a7.69,7.69,0,0,1-2.48-1.94.23.23,0,0,1,.08-.31.22.22,0,0,1,.3.08,7.27,7.27,0,0,0,2.28,1.76.22.22,0,0,1,.11.29.21.21,0,0,1-.2.13Z"/><path id="Path-77" class="cls-66" d="M39.15,156.12a6.24,6.24,0,0,1-1.88-.2.22.22,0,0,1-.14-.28.22.22,0,0,1,.28-.14h0a9.32,9.32,0,0,0,6-.79.22.22,0,0,1,.31.07.22.22,0,0,1-.07.3A8.79,8.79,0,0,1,39.15,156.12Z"/></g><g id="guy_left_hand" data-name="guy_left hand"><path id="Path-78" class="cls-69" d="M31.78,58.68C33.11,56,38.49,44.49,39,43.79s1-.84,1.15-1.91c.13-.88.06-1.49.22-2.18.22-1,1.56-3.47,1.22-4.2-.22-.49-1.11.79-1.44,1.2s-1.32,2-1.56,1.85c-.06-.62,0-2.7,0-2.7A9.06,9.06,0,0,0,37.31,39a11.68,11.68,0,0,1-1,3.31c-.74,1.52-6.83,8.18-9.93,15.12-.18.4-.36.81-.53,1.23a13,13,0,0,0,5.19,2.22A11.15,11.15,0,0,1,31.78,58.68Z"/></g><g id="guy_body"><path id="Path-79" class="cls-70" d="M34,72.27c-4-1.1-3.55-.5-4-.7-.48-.47.11-6.89,1.06-10.73a13,13,0,0,1-5.19-2.22,65.78,65.78,0,0,0-4.47,22.26c-.11,7.22.17,14.44.22,14.77s5.11,3.44,10.72,3.5S40,97.76,40,97.76s1.12-19.79.94-20.34A12.86,12.86,0,0,0,34,72.27Z"/><path id="Path-80" class="cls-39" d="M33.13,97.8h-.52c-6.63-.12-10.74-3-11.22-3.57a.22.22,0,0,1,0-.32.22.22,0,0,1,.31,0l0,0c.39.43,4.44,3.31,10.89,3.42,5.45.1,7.27-1.31,7.29-1.33a.22.22,0,0,1,.28.35C40.1,96.43,38.33,97.8,33.13,97.8Z"/><path id="Path-81" class="cls-39" d="M37.35,76.65a.22.22,0,0,1-.19-.13A11,11,0,0,0,33,72.94a.21.21,0,0,1-.13-.28.21.21,0,0,1,.29-.13,11.19,11.19,0,0,1,4.36,3.79.22.22,0,0,1-.09.3Z"/><path id="Path-82" class="cls-39" d="M26.33,69.89a.22.22,0,0,1-.22-.18c-.46-2.61,1-6.79,1.7-8.8.15-.43.27-.78.31-1a.24.24,0,0,1,.28-.16.23.23,0,0,1,.16.28c-.06.19-.17.52-.33,1-.69,2-2.12,6.09-1.68,8.58a.22.22,0,0,1-.18.26h0Z"/><path id="Path-83" class="cls-39" d="M23.63,70.83a.22.22,0,0,1-.22-.22.24.24,0,0,1,.07-.17,5.87,5.87,0,0,1,5.62-.54.23.23,0,0,1,.13.29.24.24,0,0,1-.29.13h0a5.51,5.51,0,0,0-5.15.46A.2.2,0,0,1,23.63,70.83Z"/></g><g id="guy_head"><g id="Group-15"><path id="Path-84" class="cls-71" d="M35.87,56.81c.84,1.4,2.53,1.66,2.66,2.14s-.77,1.42-1.05,1.58S35.87,58,35.76,57.67A1.58,1.58,0,0,1,35.87,56.81Z"/><path id="Path-85" class="cls-72" d="M33.53,53.88S29.68,55,27.79,57.63c-1,1.45.26,4,1.62,6a3.3,3.3,0,0,0-.69.84l-.18.49a41.94,41.94,0,0,1-1.76,6.12c-.17.43,1,2,3.51,2.13a6.37,6.37,0,0,0,3.71-1l.21-4.87s.07-.31.15-.72a5.53,5.53,0,0,0,3.32-1.61C40.23,62.44,35,55,33.53,53.88Z"/><path id="Path-86" class="cls-73" d="M32.75,60.63c.28-.19.2-.78-.46-1.44s-1.37-1.26-1.24-2,2.42-1.45,3.5-2.25c1.77-1.31,2.34-4.49,1.27-4.7C34.35,50,33.88,52,33.49,52s-.23-1.07-.89-1c-1,.12-1.33,1.49-1.88,1.91-.83.64-5.26,2-5.53,5.29-.23,2.69,1.45,4.21,2.19,5.17.36.55.75,1.07,1.16,1.58a5.28,5.28,0,0,0,2.25-.47c1-.42,1.61-.94,1.42-1.19s-1.65-.53-1.75-1.75c-.07-.89.53-1.28,1-1.2S32.44,60.84,32.75,60.63Z"/><path id="Path-87" class="cls-74" d="M33.43,61.53c.17,0,.3,1.18,1,1.35.46.1,1.92-.91,2.57-1.2.4-.17,1.11-.3,1.16-.11a7.88,7.88,0,0,0,.4,1.44A2.58,2.58,0,0,1,39,65c-.34,1.52-3,2.65-4.78,2.39a13.68,13.68,0,0,0-.41-2.3c-.34-1.4-.88-2.66-.87-2.92S33.13,61.52,33.43,61.53Z"/><path id="Path-88" class="cls-23" d="M35.36,59a.33.33,0,0,1-.32-.25,5.88,5.88,0,0,0-.49-1,.33.33,0,1,1,.52-.41,5.28,5.28,0,0,1,.61,1.21.33.33,0,0,1-.23.41h-.09Z"/><path id="Path-89" class="cls-75" d="M37.1,62.67a.66.66,0,0,0,.27.19.83.83,0,0,0,.35,0,.74.74,0,0,0,.55-.45.09.09,0,0,1,.16.08h0a1.33,1.33,0,0,1-.24.39,1,1,0,0,1-1.36-.07h0a.16.16,0,0,1,0-.23.17.17,0,0,1,.24,0h0Z"/><g id="Group-16"><path id="Path-90" class="cls-76" d="M30.29,73.22a6.34,6.34,0,0,0,3.7-1l.08-1.77a6.52,6.52,0,0,1-3.36.74,4.1,4.1,0,0,1-3.4-1.67c-.21.65-.4,1.2-.53,1.52S27.77,73.09,30.29,73.22Z"/><path id="Path-91" class="cls-39" d="M30.62,73.45h-.34a4.46,4.46,0,0,1-3.53-1.68.87.87,0,0,1-.18-.75.23.23,0,0,1,.29-.12.23.23,0,0,1,.13.28.68.68,0,0,0,.19.43A4.06,4.06,0,0,0,30.3,73a6,6,0,0,0,3.56-.9.22.22,0,0,1,.31.06.21.21,0,0,1-.05.3A6.36,6.36,0,0,1,30.62,73.45Z"/></g></g></g><g id="guy_right_hand" data-name="guy_right hand"><path id="Path-92" class="cls-77" d="M45.1,108.6c-.63-1.92-1.3-14.43-2.42-23.13a18.15,18.15,0,0,0-7,1.51c.32,1.46.77,3.38,1.49,5.89,2,6.89,4.64,14.74,4.69,16.44,0,1-.83,2.17-.94,3.65-.07,1,.33,2.6.71,2.57s.44-1.5.64-2.2a2.47,2.47,0,0,1,.95-1.47H47C46.62,110.69,45.37,109.44,45.1,108.6Z"/><path id="Path-93" class="cls-78" d="M40.71,77.18c-2.22-2.37-6.48.11-6.88,3.22-.09.66.51,1.44,1,2.59.26.68.43,1.85.89,4a18,18,0,0,1,7-1.51C42.14,81.31,41.5,78,40.71,77.18Z"/><path id="Path-94" class="cls-39" d="M35.68,87.2a.22.22,0,0,1-.23-.22.21.21,0,0,1,.13-.2,17.9,17.9,0,0,1,7.1-1.53.21.21,0,0,1,.22.21.21.21,0,0,1-.21.23,18.14,18.14,0,0,0-6.92,1.49Z"/><path id="Path-95" class="cls-39" d="M33.83,80.62h0a.22.22,0,0,1-.19-.25,5.4,5.4,0,0,1,3.63-4.15,3.38,3.38,0,0,1,3.63.8.22.22,0,0,1,0,.32.22.22,0,0,1-.31,0h0a3,3,0,0,0-3.17-.69,4.93,4.93,0,0,0-3.33,3.79A.22.22,0,0,1,33.83,80.62Z"/></g><g id="joints_4"><g id="Group-17"><path id="Path-96" class="cls-25" d="M107.69,55l-2.34-.2,2.17-2.14Z"/><path id="Path-97" class="cls-20" d="M99.43,62.15a.23.23,0,0,1-.21-.15c-1.14-3.49,1.11-5.64,4.84-9.22.77-.74,1.64-1.57,2.54-2.48,5.31-5.35,4.27-10.79,3.83-12.33a.21.21,0,0,1,.15-.27.21.21,0,0,1,.27.15h0c.46,1.6,1.54,7.24-3.94,12.76-.9.91-1.77,1.75-2.55,2.49-3.6,3.46-5.77,5.54-4.72,8.76a.22.22,0,0,1-.14.28h-.07Z"/><path id="Path-98" class="cls-22" d="M110,51.76l-.79-.79A13.71,13.71,0,0,0,113,44.24l1.09.24A14.94,14.94,0,0,1,110,51.76Z"/><circle id="Oval-11" class="cls-5" cx="110.64" cy="37.91" r="0.88"/></g></g><g id="joints_3"><g id="Group-18"><path id="Path-99" class="cls-20" d="M97.43,63a.19.19,0,0,1-.1,0c-.06,0-1.59-.86-1.22-3.41a8.78,8.78,0,0,1,2.14-3.94c1.29-1.67,2.63-3.39,2.44-5.78a3.36,3.36,0,0,0-1.41-2.42c-4.64-3.64-19-2.66-22.58-2.06a.22.22,0,1,1-.08-.44c3.68-.6,18.18-1.58,22.93,2.15a3.77,3.77,0,0,1,1.58,2.73c.2,2.56-1.25,4.44-2.53,6.09a8.6,8.6,0,0,0-2.06,3.73c-.31,2.22.95,2.93,1,3a.22.22,0,0,1,.09.3.23.23,0,0,1-.2.12Z"/><path id="Path-100" class="cls-34" d="M93.57,48A47.52,47.52,0,0,0,86,47.46V46.35a48.61,48.61,0,0,1,7.71.55Z"/><circle id="Oval-12" class="cls-5" cx="76.66" cy="45.18" r="0.88"/></g></g><g id="joints_2"><g id="Group-19"><path id="Path-101" class="cls-25" d="M13.07,65.66l-.8,2.2-1.5-2.64Z"/><path id="Path-102" class="cls-20" d="M36.07,84.09h-.52a29.86,29.86,0,0,1-22.24-9.72C6.88,67.14,3.83,58,5.15,49.9a19.23,19.23,0,0,1,9.44-14,.22.22,0,0,1,.31.08.22.22,0,0,1-.09.3h0A18.85,18.85,0,0,0,5.58,50c-1.29,8,1.72,17,8.06,24.1C25.07,86.89,45.85,86.91,61,74.12c2.62-2.21,4.84-4.49,7-6.7,5.12-5.25,9.55-9.78,16.26-10,6.28-.16,9.39,3.09,10.9,5.83a.22.22,0,0,1-.08.3.23.23,0,0,1-.31-.09c-1.45-2.63-4.44-5.75-10.49-5.59-6.54.16-10.91,4.63-16,9.81-2.17,2.21-4.4,4.5-7,6.73A39.2,39.2,0,0,1,36.07,84.09Z"/><path id="Path-103" class="cls-34" d="M9.93,63.21a28.42,28.42,0,0,1-1.64-8.9l1.11,0A27.39,27.39,0,0,0,11,62.84Z"/><path id="Path-104" class="cls-22" d="M44,81.42l-.25-1.08a37.63,37.63,0,0,0,7.64-2.6l.46,1A38.86,38.86,0,0,1,44,81.42Z"/><circle id="Oval-13" class="cls-5" cx="14.71" cy="36.12" r="0.88"/></g></g><g id="joints_1"><g id="Group-20"><path id="Path-105" class="cls-22" d="M88.77,98.7l-2.31.44L88,96.5Z"/><path id="Path-106" class="cls-20" d="M71.8,103.84c-.31,0-.6,0-.88,0a.22.22,0,0,1-.21-.23h0a.23.23,0,0,1,.23-.21c4.29.24,11.65-1.32,14.39-6.6,1.22-2.37,1.56-5.76,1.93-9.35.59-6,1.22-12.1,5.84-15a.23.23,0,0,1,.31.08.22.22,0,0,1-.08.3h0c-4.43,2.74-5,8.78-5.64,14.62-.37,3.63-.71,7.06-2,9.5C83.07,102.09,76.27,103.84,71.8,103.84Z"/><path id="Path-107" class="cls-25" d="M89.52,94.41l-1.08-.26a49.6,49.6,0,0,0,.91-6.42l.21-2,1.1.13c-.07.65-.13,1.3-.2,1.95A50.3,50.3,0,0,1,89.52,94.41Z"/><circle id="Oval-14" class="cls-34" cx="70.93" cy="103.59" r="0.88"/></g></g></g></g></g></svg>